<mxfile host="Electron" agent="Mozilla/5.0 (Windows NT 10.0; Win64; x64) AppleWebKit/537.36 (KHTML, like Gecko) draw.io/26.0.9 Chrome/128.0.6613.186 Electron/32.2.5 Safari/537.36" version="26.0.9" pages="5">
  <diagram id="9FlvWgcjnKxU9mLH5Ll4" name="CRIACAO">
    <mxGraphModel dx="1434" dy="844" grid="1" gridSize="10" guides="1" tooltips="1" connect="1" arrows="1" fold="1" page="1" pageScale="1" pageWidth="827" pageHeight="1169" math="0" shadow="0">
      <root>
        <mxCell id="0" />
        <mxCell id="1" parent="0" />
        <mxCell id="tAjsZeP0O5nR-WtBKHaJ-1" value="ORDEM" style="outlineConnect=0;dashed=0;verticalLabelPosition=bottom;verticalAlign=top;align=center;html=1;shape=mxgraph.aws3.dynamo_db;fillColor=#2E73B8;gradientColor=none;" vertex="1" parent="1">
          <mxGeometry x="58" y="730" width="72" height="81" as="geometry" />
        </mxCell>
        <mxCell id="tAjsZeP0O5nR-WtBKHaJ-2" value="PARTICIPANTE" style="outlineConnect=0;dashed=0;verticalLabelPosition=bottom;verticalAlign=top;align=center;html=1;shape=mxgraph.aws3.dynamo_db;fillColor=#2E73B8;gradientColor=none;" vertex="1" parent="1">
          <mxGeometry x="218" y="730" width="72" height="81" as="geometry" />
        </mxCell>
        <mxCell id="tAjsZeP0O5nR-WtBKHaJ-3" value="REGRA" style="outlineConnect=0;dashed=0;verticalLabelPosition=bottom;verticalAlign=top;align=center;html=1;shape=mxgraph.aws3.dynamo_db;fillColor=#2E73B8;gradientColor=none;" vertex="1" parent="1">
          <mxGeometry x="378" y="730" width="72" height="81" as="geometry" />
        </mxCell>
        <mxCell id="tAjsZeP0O5nR-WtBKHaJ-4" value="METADADO" style="outlineConnect=0;dashed=0;verticalLabelPosition=bottom;verticalAlign=top;align=center;html=1;shape=mxgraph.aws3.dynamo_db;fillColor=#2E73B8;gradientColor=none;" vertex="1" parent="1">
          <mxGeometry x="538" y="730" width="72" height="81" as="geometry" />
        </mxCell>
        <mxCell id="tAjsZeP0O5nR-WtBKHaJ-5" value="CERTIFICADO" style="outlineConnect=0;dashed=0;verticalLabelPosition=bottom;verticalAlign=top;align=center;html=1;shape=mxgraph.aws3.dynamo_db;fillColor=#2E73B8;gradientColor=none;" vertex="1" parent="1">
          <mxGeometry x="698" y="730" width="72" height="81" as="geometry" />
        </mxCell>
        <mxCell id="tAjsZeP0O5nR-WtBKHaJ-16" style="edgeStyle=orthogonalEdgeStyle;rounded=0;orthogonalLoop=1;jettySize=auto;html=1;endArrow=classic;endFill=1;startArrow=classic;startFill=1;" edge="1" parent="1" source="tAjsZeP0O5nR-WtBKHaJ-12" target="tAjsZeP0O5nR-WtBKHaJ-14">
          <mxGeometry relative="1" as="geometry" />
        </mxCell>
        <mxCell id="tAjsZeP0O5nR-WtBKHaJ-17" style="edgeStyle=orthogonalEdgeStyle;rounded=0;orthogonalLoop=1;jettySize=auto;html=1;startArrow=classic;startFill=1;" edge="1" parent="1" source="tAjsZeP0O5nR-WtBKHaJ-12" target="tAjsZeP0O5nR-WtBKHaJ-13">
          <mxGeometry relative="1" as="geometry" />
        </mxCell>
        <mxCell id="tAjsZeP0O5nR-WtBKHaJ-12" value="" style="sketch=0;points=[[0,0,0],[0.25,0,0],[0.5,0,0],[0.75,0,0],[1,0,0],[0,1,0],[0.25,1,0],[0.5,1,0],[0.75,1,0],[1,1,0],[0,0.25,0],[0,0.5,0],[0,0.75,0],[1,0.25,0],[1,0.5,0],[1,0.75,0]];outlineConnect=0;fontColor=#232F3E;fillColor=#E7157B;strokeColor=#ffffff;dashed=0;verticalLabelPosition=bottom;verticalAlign=top;align=center;html=1;fontSize=12;fontStyle=0;aspect=fixed;shape=mxgraph.aws4.resourceIcon;resIcon=mxgraph.aws4.api_gateway;" vertex="1" parent="1">
          <mxGeometry x="148.5" y="40" width="78" height="78" as="geometry" />
        </mxCell>
        <mxCell id="tAjsZeP0O5nR-WtBKHaJ-18" style="edgeStyle=orthogonalEdgeStyle;rounded=0;orthogonalLoop=1;jettySize=auto;html=1;dashed=1;" edge="1" parent="1" source="tAjsZeP0O5nR-WtBKHaJ-13" target="tAjsZeP0O5nR-WtBKHaJ-15">
          <mxGeometry relative="1" as="geometry" />
        </mxCell>
        <mxCell id="tAjsZeP0O5nR-WtBKHaJ-13" value="API DE CRIAÇÃO" style="outlineConnect=0;dashed=0;verticalLabelPosition=bottom;verticalAlign=top;align=center;html=1;shape=mxgraph.aws3.ec2;fillColor=#F58534;gradientColor=none;" vertex="1" parent="1">
          <mxGeometry x="150" y="190" width="76.5" height="93" as="geometry" />
        </mxCell>
        <mxCell id="tAjsZeP0O5nR-WtBKHaJ-14" value="" style="sketch=0;points=[[0,0,0],[0.25,0,0],[0.5,0,0],[0.75,0,0],[1,0,0],[0,1,0],[0.25,1,0],[0.5,1,0],[0.75,1,0],[1,1,0],[0,0.25,0],[0,0.5,0],[0,0.75,0],[1,0.25,0],[1,0.5,0],[1,0.75,0]];outlineConnect=0;fontColor=#232F3E;fillColor=#7AA116;strokeColor=#ffffff;dashed=0;verticalLabelPosition=bottom;verticalAlign=top;align=center;html=1;fontSize=12;fontStyle=0;aspect=fixed;shape=mxgraph.aws4.resourceIcon;resIcon=mxgraph.aws4.s3;" vertex="1" parent="1">
          <mxGeometry x="350" y="40" width="78" height="78" as="geometry" />
        </mxCell>
        <mxCell id="tAjsZeP0O5nR-WtBKHaJ-24" style="edgeStyle=orthogonalEdgeStyle;rounded=0;orthogonalLoop=1;jettySize=auto;html=1;" edge="1" parent="1" source="tAjsZeP0O5nR-WtBKHaJ-15" target="tAjsZeP0O5nR-WtBKHaJ-19">
          <mxGeometry relative="1" as="geometry" />
        </mxCell>
        <mxCell id="tAjsZeP0O5nR-WtBKHaJ-15" value="" style="sketch=0;points=[[0,0,0],[0.25,0,0],[0.5,0,0],[0.75,0,0],[1,0,0],[0,1,0],[0.25,1,0],[0.5,1,0],[0.75,1,0],[1,1,0],[0,0.25,0],[0,0.5,0],[0,0.75,0],[1,0.25,0],[1,0.5,0],[1,0.75,0]];outlineConnect=0;fontColor=#232F3E;fillColor=#E7157B;strokeColor=#ffffff;dashed=0;verticalLabelPosition=bottom;verticalAlign=top;align=center;html=1;fontSize=12;fontStyle=0;aspect=fixed;shape=mxgraph.aws4.resourceIcon;resIcon=mxgraph.aws4.sqs;" vertex="1" parent="1">
          <mxGeometry x="150" y="370" width="78" height="78" as="geometry" />
        </mxCell>
        <mxCell id="tAjsZeP0O5nR-WtBKHaJ-20" style="edgeStyle=orthogonalEdgeStyle;rounded=0;orthogonalLoop=1;jettySize=auto;html=1;" edge="1" parent="1" source="tAjsZeP0O5nR-WtBKHaJ-19" target="tAjsZeP0O5nR-WtBKHaJ-1">
          <mxGeometry relative="1" as="geometry" />
        </mxCell>
        <mxCell id="tAjsZeP0O5nR-WtBKHaJ-22" style="edgeStyle=orthogonalEdgeStyle;rounded=0;orthogonalLoop=1;jettySize=auto;html=1;" edge="1" parent="1" source="tAjsZeP0O5nR-WtBKHaJ-19" target="tAjsZeP0O5nR-WtBKHaJ-3">
          <mxGeometry relative="1" as="geometry" />
        </mxCell>
        <mxCell id="tAjsZeP0O5nR-WtBKHaJ-23" style="edgeStyle=orthogonalEdgeStyle;rounded=0;orthogonalLoop=1;jettySize=auto;html=1;" edge="1" parent="1" source="tAjsZeP0O5nR-WtBKHaJ-19" target="tAjsZeP0O5nR-WtBKHaJ-4">
          <mxGeometry relative="1" as="geometry" />
        </mxCell>
        <mxCell id="tAjsZeP0O5nR-WtBKHaJ-19" value="CRUD" style="outlineConnect=0;dashed=0;verticalLabelPosition=bottom;verticalAlign=top;align=center;html=1;shape=mxgraph.aws3.ec2;fillColor=#F58534;gradientColor=none;" vertex="1" parent="1">
          <mxGeometry x="150" y="530" width="76.5" height="93" as="geometry" />
        </mxCell>
        <mxCell id="tAjsZeP0O5nR-WtBKHaJ-21" style="edgeStyle=orthogonalEdgeStyle;rounded=0;orthogonalLoop=1;jettySize=auto;html=1;entryX=0.5;entryY=0;entryDx=0;entryDy=0;entryPerimeter=0;" edge="1" parent="1" source="tAjsZeP0O5nR-WtBKHaJ-19" target="tAjsZeP0O5nR-WtBKHaJ-2">
          <mxGeometry relative="1" as="geometry" />
        </mxCell>
        <mxCell id="tAjsZeP0O5nR-WtBKHaJ-29" style="edgeStyle=orthogonalEdgeStyle;rounded=0;orthogonalLoop=1;jettySize=auto;html=1;startArrow=classic;startFill=1;" edge="1" parent="1" source="tAjsZeP0O5nR-WtBKHaJ-26" target="tAjsZeP0O5nR-WtBKHaJ-28">
          <mxGeometry relative="1" as="geometry" />
        </mxCell>
        <mxCell id="tAjsZeP0O5nR-WtBKHaJ-26" value="API DE VALIDAÇÃO" style="outlineConnect=0;dashed=0;verticalLabelPosition=bottom;verticalAlign=top;align=center;html=1;shape=mxgraph.aws3.ec2;fillColor=#F58534;gradientColor=none;" vertex="1" parent="1">
          <mxGeometry x="580" y="190" width="76.5" height="93" as="geometry" />
        </mxCell>
        <mxCell id="tAjsZeP0O5nR-WtBKHaJ-28" value="PADRAO" style="outlineConnect=0;dashed=0;verticalLabelPosition=bottom;verticalAlign=top;align=center;html=1;shape=mxgraph.aws3.dynamo_db;fillColor=#2E73B8;gradientColor=none;" vertex="1" parent="1">
          <mxGeometry x="788.5" y="196" width="72" height="81" as="geometry" />
        </mxCell>
        <mxCell id="tAjsZeP0O5nR-WtBKHaJ-30" value="" style="sketch=0;outlineConnect=0;fontColor=#232F3E;gradientColor=none;fillColor=#C925D1;strokeColor=none;dashed=0;verticalLabelPosition=bottom;verticalAlign=top;align=center;html=1;fontSize=12;fontStyle=0;aspect=fixed;pointerEvents=1;shape=mxgraph.aws4.dynamodb_dax;" vertex="1" parent="1">
          <mxGeometry x="818.5" y="170" width="56.33" height="52" as="geometry" />
        </mxCell>
        <mxCell id="tAjsZeP0O5nR-WtBKHaJ-34" style="edgeStyle=orthogonalEdgeStyle;rounded=0;orthogonalLoop=1;jettySize=auto;html=1;startArrow=classic;startFill=1;" edge="1" parent="1" source="tAjsZeP0O5nR-WtBKHaJ-31" target="tAjsZeP0O5nR-WtBKHaJ-26">
          <mxGeometry relative="1" as="geometry" />
        </mxCell>
        <mxCell id="tAjsZeP0O5nR-WtBKHaJ-31" value="" style="outlineConnect=0;dashed=0;verticalLabelPosition=bottom;verticalAlign=top;align=center;html=1;shape=mxgraph.aws3.elasticache;fillColor=#2E73B8;gradientColor=none;" vertex="1" parent="1">
          <mxGeometry x="382.5" y="196" width="67.5" height="81" as="geometry" />
        </mxCell>
        <mxCell id="tAjsZeP0O5nR-WtBKHaJ-32" style="edgeStyle=orthogonalEdgeStyle;rounded=0;orthogonalLoop=1;jettySize=auto;html=1;entryX=0.29;entryY=0.5;entryDx=0;entryDy=0;entryPerimeter=0;startArrow=classic;startFill=1;" edge="1" parent="1" source="tAjsZeP0O5nR-WtBKHaJ-13" target="tAjsZeP0O5nR-WtBKHaJ-31">
          <mxGeometry relative="1" as="geometry" />
        </mxCell>
        <mxCell id="tCsflGJoCiL21SndKCwV-1" value="METADADOS PARTICIPANTE" style="outlineConnect=0;dashed=0;verticalLabelPosition=bottom;verticalAlign=top;align=center;html=1;shape=mxgraph.aws3.dynamo_db;fillColor=#2E73B8;gradientColor=none;" vertex="1" parent="1">
          <mxGeometry x="334" y="920" width="72" height="81" as="geometry" />
        </mxCell>
        <mxCell id="tCsflGJoCiL21SndKCwV-2" value="NOTIFICACAO PARTICIPANTE" style="outlineConnect=0;dashed=0;verticalLabelPosition=bottom;verticalAlign=top;align=center;html=1;shape=mxgraph.aws3.dynamo_db;fillColor=#2E73B8;gradientColor=none;" vertex="1" parent="1">
          <mxGeometry x="536" y="920" width="72" height="81" as="geometry" />
        </mxCell>
        <mxCell id="tCsflGJoCiL21SndKCwV-11" value="CRIAÇÃO" style="swimlane;horizontal=0;whiteSpace=wrap;html=1;" vertex="1" parent="1">
          <mxGeometry x="910" y="60" width="790" height="310" as="geometry" />
        </mxCell>
        <mxCell id="tCsflGJoCiL21SndKCwV-4" value="ORDEM" style="outlineConnect=0;dashed=0;verticalLabelPosition=bottom;verticalAlign=top;align=center;html=1;shape=mxgraph.aws3.dynamo_db;fillColor=#2E73B8;gradientColor=none;" vertex="1" parent="tCsflGJoCiL21SndKCwV-11">
          <mxGeometry x="40" y="34.5" width="72" height="81" as="geometry" />
        </mxCell>
        <mxCell id="tCsflGJoCiL21SndKCwV-5" value="PARTICIPANTE" style="outlineConnect=0;dashed=0;verticalLabelPosition=bottom;verticalAlign=top;align=center;html=1;shape=mxgraph.aws3.dynamo_db;fillColor=#2E73B8;gradientColor=none;" vertex="1" parent="tCsflGJoCiL21SndKCwV-11">
          <mxGeometry x="200" y="34.5" width="72" height="81" as="geometry" />
        </mxCell>
        <mxCell id="tCsflGJoCiL21SndKCwV-6" value="REGRA" style="outlineConnect=0;dashed=0;verticalLabelPosition=bottom;verticalAlign=top;align=center;html=1;shape=mxgraph.aws3.dynamo_db;fillColor=#2E73B8;gradientColor=none;" vertex="1" parent="tCsflGJoCiL21SndKCwV-11">
          <mxGeometry x="360" y="34.5" width="72" height="81" as="geometry" />
        </mxCell>
        <mxCell id="tCsflGJoCiL21SndKCwV-7" value="METADADO" style="outlineConnect=0;dashed=0;verticalLabelPosition=bottom;verticalAlign=top;align=center;html=1;shape=mxgraph.aws3.dynamo_db;fillColor=#2E73B8;gradientColor=none;" vertex="1" parent="tCsflGJoCiL21SndKCwV-11">
          <mxGeometry x="520" y="34.5" width="72" height="81" as="geometry" />
        </mxCell>
        <mxCell id="tCsflGJoCiL21SndKCwV-8" value="CERTIFICADO" style="outlineConnect=0;dashed=0;verticalLabelPosition=bottom;verticalAlign=top;align=center;html=1;shape=mxgraph.aws3.dynamo_db;fillColor=#2E73B8;gradientColor=none;" vertex="1" parent="tCsflGJoCiL21SndKCwV-11">
          <mxGeometry x="680" y="34.5" width="72" height="81" as="geometry" />
        </mxCell>
        <mxCell id="tCsflGJoCiL21SndKCwV-9" value="METADADOS PARTICIPANTE" style="outlineConnect=0;dashed=0;verticalLabelPosition=bottom;verticalAlign=top;align=center;html=1;shape=mxgraph.aws3.dynamo_db;fillColor=#2E73B8;gradientColor=none;" vertex="1" parent="tCsflGJoCiL21SndKCwV-11">
          <mxGeometry x="470" y="170" width="72" height="81" as="geometry" />
        </mxCell>
        <mxCell id="tCsflGJoCiL21SndKCwV-10" value="NOTIFICACAO PARTICIPANTE" style="outlineConnect=0;dashed=0;verticalLabelPosition=bottom;verticalAlign=top;align=center;html=1;shape=mxgraph.aws3.dynamo_db;fillColor=#2E73B8;gradientColor=none;" vertex="1" parent="tCsflGJoCiL21SndKCwV-11">
          <mxGeometry x="650" y="170" width="72" height="81" as="geometry" />
        </mxCell>
        <mxCell id="tCsflGJoCiL21SndKCwV-35" value="" style="sketch=0;points=[[0,0,0],[0.25,0,0],[0.5,0,0],[0.75,0,0],[1,0,0],[0,1,0],[0.25,1,0],[0.5,1,0],[0.75,1,0],[1,1,0],[0,0.25,0],[0,0.5,0],[0,0.75,0],[1,0.25,0],[1,0.5,0],[1,0.75,0]];outlineConnect=0;fontColor=#232F3E;fillColor=#8C4FFF;strokeColor=#ffffff;dashed=0;verticalLabelPosition=bottom;verticalAlign=top;align=center;html=1;fontSize=12;fontStyle=0;aspect=fixed;shape=mxgraph.aws4.resourceIcon;resIcon=mxgraph.aws4.kinesis_data_firehose;" vertex="1" parent="tCsflGJoCiL21SndKCwV-11">
          <mxGeometry x="40" y="210" width="78" height="78" as="geometry" />
        </mxCell>
        <mxCell id="tCsflGJoCiL21SndKCwV-12" value="ID ORDEM&lt;br&gt;COD CONSUMIDOR" style="text;html=1;align=center;verticalAlign=middle;whiteSpace=wrap;rounded=0;" vertex="1" parent="1">
          <mxGeometry x="24" y="840" width="140" height="30" as="geometry" />
        </mxCell>
        <mxCell id="tCsflGJoCiL21SndKCwV-13" value="ID PARTICIPANTE&lt;div&gt;ID ORDEM&lt;/div&gt;&lt;div&gt;ID PESSOA&lt;/div&gt;" style="text;html=1;align=center;verticalAlign=middle;whiteSpace=wrap;rounded=0;" vertex="1" parent="1">
          <mxGeometry x="184" y="840" width="140" height="40" as="geometry" />
        </mxCell>
        <mxCell id="tCsflGJoCiL21SndKCwV-14" value="ID REGRA&lt;div&gt;ID ORDEM&lt;/div&gt;&lt;div&gt;ID PARTICIPANTE&lt;/div&gt;" style="text;html=1;align=center;verticalAlign=middle;whiteSpace=wrap;rounded=0;" vertex="1" parent="1">
          <mxGeometry x="346.25" y="840" width="140" height="40" as="geometry" />
        </mxCell>
        <mxCell id="tCsflGJoCiL21SndKCwV-15" value="ID ORDEM" style="text;html=1;align=center;verticalAlign=middle;whiteSpace=wrap;rounded=0;" vertex="1" parent="1">
          <mxGeometry x="504" y="840" width="140" height="30" as="geometry" />
        </mxCell>
        <mxCell id="tCsflGJoCiL21SndKCwV-16" value="ID PESSOA" style="text;html=1;align=center;verticalAlign=middle;whiteSpace=wrap;rounded=0;" vertex="1" parent="1">
          <mxGeometry x="664" y="840" width="140" height="30" as="geometry" />
        </mxCell>
        <mxCell id="tCsflGJoCiL21SndKCwV-17" value="ID PARTICIPANTE" style="text;html=1;align=center;verticalAlign=middle;whiteSpace=wrap;rounded=0;" vertex="1" parent="1">
          <mxGeometry x="300" y="1030" width="140" height="30" as="geometry" />
        </mxCell>
        <mxCell id="tCsflGJoCiL21SndKCwV-18" value="ID PARTICIPANTE" style="text;html=1;align=center;verticalAlign=middle;whiteSpace=wrap;rounded=0;" vertex="1" parent="1">
          <mxGeometry x="504" y="1030" width="140" height="30" as="geometry" />
        </mxCell>
        <mxCell id="tCsflGJoCiL21SndKCwV-19" value="CONSULTA" style="swimlane;horizontal=0;whiteSpace=wrap;html=1;" vertex="1" parent="1">
          <mxGeometry x="910" y="410" width="801" height="310" as="geometry" />
        </mxCell>
        <mxCell id="tCsflGJoCiL21SndKCwV-20" value="ORDEM" style="outlineConnect=0;dashed=0;verticalLabelPosition=bottom;verticalAlign=top;align=center;html=1;shape=mxgraph.aws3.dynamo_db;fillColor=#2E73B8;gradientColor=none;" vertex="1" parent="tCsflGJoCiL21SndKCwV-19">
          <mxGeometry x="39" y="10" width="72" height="81" as="geometry" />
        </mxCell>
        <mxCell id="tCsflGJoCiL21SndKCwV-21" value="PARTICIPANTE" style="outlineConnect=0;dashed=0;verticalLabelPosition=bottom;verticalAlign=top;align=center;html=1;shape=mxgraph.aws3.dynamo_db;fillColor=#2E73B8;gradientColor=none;" vertex="1" parent="tCsflGJoCiL21SndKCwV-19">
          <mxGeometry x="199" y="10" width="72" height="81" as="geometry" />
        </mxCell>
        <mxCell id="tCsflGJoCiL21SndKCwV-22" value="REGRA" style="outlineConnect=0;dashed=0;verticalLabelPosition=bottom;verticalAlign=top;align=center;html=1;shape=mxgraph.aws3.dynamo_db;fillColor=#2E73B8;gradientColor=none;" vertex="1" parent="tCsflGJoCiL21SndKCwV-19">
          <mxGeometry x="359" y="10" width="72" height="81" as="geometry" />
        </mxCell>
        <mxCell id="tCsflGJoCiL21SndKCwV-23" value="METADADO" style="outlineConnect=0;dashed=0;verticalLabelPosition=bottom;verticalAlign=top;align=center;html=1;shape=mxgraph.aws3.dynamo_db;fillColor=#2E73B8;gradientColor=none;" vertex="1" parent="tCsflGJoCiL21SndKCwV-19">
          <mxGeometry x="519" y="10" width="72" height="81" as="geometry" />
        </mxCell>
        <mxCell id="tCsflGJoCiL21SndKCwV-24" value="CERTIFICADO" style="outlineConnect=0;dashed=0;verticalLabelPosition=bottom;verticalAlign=top;align=center;html=1;shape=mxgraph.aws3.dynamo_db;fillColor=#2E73B8;gradientColor=none;" vertex="1" parent="tCsflGJoCiL21SndKCwV-19">
          <mxGeometry x="679" y="10" width="72" height="81" as="geometry" />
        </mxCell>
        <mxCell id="tCsflGJoCiL21SndKCwV-25" value="METADADOS PARTICIPANTE" style="outlineConnect=0;dashed=0;verticalLabelPosition=bottom;verticalAlign=top;align=center;html=1;shape=mxgraph.aws3.dynamo_db;fillColor=#2E73B8;gradientColor=none;" vertex="1" parent="tCsflGJoCiL21SndKCwV-19">
          <mxGeometry x="469" y="165.5" width="72" height="81" as="geometry" />
        </mxCell>
        <mxCell id="tCsflGJoCiL21SndKCwV-26" value="NOTIFICACAO PARTICIPANTE" style="outlineConnect=0;dashed=0;verticalLabelPosition=bottom;verticalAlign=top;align=center;html=1;shape=mxgraph.aws3.dynamo_db;fillColor=#2E73B8;gradientColor=none;" vertex="1" parent="tCsflGJoCiL21SndKCwV-19">
          <mxGeometry x="649" y="165.5" width="72" height="81" as="geometry" />
        </mxCell>
        <mxCell id="tCsflGJoCiL21SndKCwV-27" value="/ORDEM" style="text;html=1;align=center;verticalAlign=middle;resizable=0;points=[];autosize=1;strokeColor=none;fillColor=none;" vertex="1" parent="tCsflGJoCiL21SndKCwV-19">
          <mxGeometry x="39" y="120.5" width="70" height="30" as="geometry" />
        </mxCell>
        <mxCell id="tCsflGJoCiL21SndKCwV-28" value="/PARTICIPANTE" style="text;html=1;align=center;verticalAlign=middle;resizable=0;points=[];autosize=1;strokeColor=none;fillColor=none;" vertex="1" parent="tCsflGJoCiL21SndKCwV-19">
          <mxGeometry x="180" y="120.5" width="110" height="30" as="geometry" />
        </mxCell>
        <mxCell id="tCsflGJoCiL21SndKCwV-29" value="/REGRA" style="text;html=1;align=center;verticalAlign=middle;resizable=0;points=[];autosize=1;strokeColor=none;fillColor=none;" vertex="1" parent="tCsflGJoCiL21SndKCwV-19">
          <mxGeometry x="360" y="120.5" width="70" height="30" as="geometry" />
        </mxCell>
        <mxCell id="tCsflGJoCiL21SndKCwV-30" value="/ORDEM/ID/METADADOS" style="text;html=1;align=center;verticalAlign=middle;resizable=0;points=[];autosize=1;strokeColor=none;fillColor=none;" vertex="1" parent="tCsflGJoCiL21SndKCwV-19">
          <mxGeometry x="470" y="120.5" width="170" height="30" as="geometry" />
        </mxCell>
        <mxCell id="tCsflGJoCiL21SndKCwV-31" value="/PARTICIPANTE/ID/METADADOS" style="text;html=1;align=center;verticalAlign=middle;resizable=0;points=[];autosize=1;strokeColor=none;fillColor=none;" vertex="1" parent="tCsflGJoCiL21SndKCwV-19">
          <mxGeometry x="359" y="270" width="210" height="30" as="geometry" />
        </mxCell>
        <mxCell id="tCsflGJoCiL21SndKCwV-32" value="/PARTICIPANTE/ID/NOTIFICACOES" style="text;html=1;align=center;verticalAlign=middle;resizable=0;points=[];autosize=1;strokeColor=none;fillColor=none;" vertex="1" parent="tCsflGJoCiL21SndKCwV-19">
          <mxGeometry x="575" y="270" width="220" height="30" as="geometry" />
        </mxCell>
        <mxCell id="tCsflGJoCiL21SndKCwV-36" value="" style="sketch=0;points=[[0,0,0],[0.25,0,0],[0.5,0,0],[0.75,0,0],[1,0,0],[0,1,0],[0.25,1,0],[0.5,1,0],[0.75,1,0],[1,1,0],[0,0.25,0],[0,0.5,0],[0,0.75,0],[1,0.25,0],[1,0.5,0],[1,0.75,0]];outlineConnect=0;fontColor=#232F3E;fillColor=#8C4FFF;strokeColor=#ffffff;dashed=0;verticalLabelPosition=bottom;verticalAlign=top;align=center;html=1;fontSize=12;fontStyle=0;aspect=fixed;shape=mxgraph.aws4.resourceIcon;resIcon=mxgraph.aws4.kinesis_data_firehose;" vertex="1" parent="tCsflGJoCiL21SndKCwV-19">
          <mxGeometry x="39" y="210" width="78" height="78" as="geometry" />
        </mxCell>
        <mxCell id="tCsflGJoCiL21SndKCwV-33" value="SITUAÇÕES&lt;div&gt;RASCUNHO&lt;/div&gt;&lt;div&gt;CRIADA&lt;/div&gt;&lt;div&gt;PENDENTE ASSINATURA&lt;/div&gt;&lt;div&gt;PENDENTE APROVAÇÃO&lt;/div&gt;&lt;div&gt;CONCLUIDA&lt;/div&gt;&lt;div&gt;RECUSADA&lt;/div&gt;&lt;div&gt;EXPIRADA&lt;/div&gt;&lt;div&gt;CANCELADA&lt;/div&gt;" style="text;html=1;align=center;verticalAlign=middle;whiteSpace=wrap;rounded=0;" vertex="1" parent="1">
          <mxGeometry x="648" y="339" width="172" height="140" as="geometry" />
        </mxCell>
      </root>
    </mxGraphModel>
  </diagram>
  <diagram name="ASSINATURA" id="VHhNl4qdc0IsNOOFGrWy">
    <mxGraphModel dx="1434" dy="844" grid="1" gridSize="10" guides="1" tooltips="1" connect="1" arrows="1" fold="1" page="1" pageScale="1" pageWidth="827" pageHeight="1169" math="0" shadow="0">
      <root>
        <mxCell id="0" />
        <mxCell id="1" parent="0" />
        <mxCell id="ZAwZ_gKK3_NqGHiZSW0F-18" style="edgeStyle=orthogonalEdgeStyle;rounded=0;orthogonalLoop=1;jettySize=auto;html=1;startArrow=classic;startFill=1;" edge="1" parent="1" source="KWnV0jBwnBsGN_fAUz4i-1" target="KWnV0jBwnBsGN_fAUz4i-10">
          <mxGeometry relative="1" as="geometry" />
        </mxCell>
        <mxCell id="KWnV0jBwnBsGN_fAUz4i-1" value="" style="sketch=0;points=[[0,0,0],[0.25,0,0],[0.5,0,0],[0.75,0,0],[1,0,0],[0,1,0],[0.25,1,0],[0.5,1,0],[0.75,1,0],[1,1,0],[0,0.25,0],[0,0.5,0],[0,0.75,0],[1,0.25,0],[1,0.5,0],[1,0.75,0]];outlineConnect=0;fontColor=#232F3E;fillColor=#DD344C;strokeColor=#ffffff;dashed=0;verticalLabelPosition=bottom;verticalAlign=top;align=center;html=1;fontSize=12;fontStyle=0;aspect=fixed;shape=mxgraph.aws4.resourceIcon;resIcon=mxgraph.aws4.cloudhsm;" vertex="1" parent="1">
          <mxGeometry x="165" y="250" width="78" height="78" as="geometry" />
        </mxCell>
        <mxCell id="KWnV0jBwnBsGN_fAUz4i-5" value="Cloud PKI / HSM" style="rounded=0;whiteSpace=wrap;html=1;" vertex="1" parent="1">
          <mxGeometry x="105" y="210" width="120" height="60" as="geometry" />
        </mxCell>
        <mxCell id="KWnV0jBwnBsGN_fAUz4i-6" value="ARMAZENAMENTO&lt;div&gt;DEFINITIVO&lt;/div&gt;" style="ellipse;whiteSpace=wrap;html=1;" vertex="1" parent="1">
          <mxGeometry x="601.1" y="340" width="120" height="80" as="geometry" />
        </mxCell>
        <mxCell id="KWnV0jBwnBsGN_fAUz4i-7" value="" style="sketch=0;points=[[0,0,0],[0.25,0,0],[0.5,0,0],[0.75,0,0],[1,0,0],[0,1,0],[0.25,1,0],[0.5,1,0],[0.75,1,0],[1,1,0],[0,0.25,0],[0,0.5,0],[0,0.75,0],[1,0.25,0],[1,0.5,0],[1,0.75,0]];outlineConnect=0;fontColor=#232F3E;fillColor=#7AA116;strokeColor=#ffffff;dashed=0;verticalLabelPosition=bottom;verticalAlign=top;align=center;html=1;fontSize=12;fontStyle=0;aspect=fixed;shape=mxgraph.aws4.resourceIcon;resIcon=mxgraph.aws4.s3;" vertex="1" parent="1">
          <mxGeometry x="622.1" y="60" width="78" height="78" as="geometry" />
        </mxCell>
        <mxCell id="ZAwZ_gKK3_NqGHiZSW0F-19" style="edgeStyle=orthogonalEdgeStyle;rounded=0;orthogonalLoop=1;jettySize=auto;html=1;startArrow=classic;startFill=1;" edge="1" parent="1" source="KWnV0jBwnBsGN_fAUz4i-10" target="ZAwZ_gKK3_NqGHiZSW0F-1">
          <mxGeometry relative="1" as="geometry" />
        </mxCell>
        <mxCell id="ZAwZ_gKK3_NqGHiZSW0F-20" style="edgeStyle=orthogonalEdgeStyle;rounded=0;orthogonalLoop=1;jettySize=auto;html=1;" edge="1" parent="1" source="KWnV0jBwnBsGN_fAUz4i-10" target="KWnV0jBwnBsGN_fAUz4i-6">
          <mxGeometry relative="1" as="geometry">
            <Array as="points">
              <mxPoint x="661.1" y="310" />
            </Array>
          </mxGeometry>
        </mxCell>
        <mxCell id="KWnV0jBwnBsGN_fAUz4i-10" value="API ASSINATURA" style="sketch=0;points=[[0,0,0],[0.25,0,0],[0.5,0,0],[0.75,0,0],[1,0,0],[0,1,0],[0.25,1,0],[0.5,1,0],[0.75,1,0],[1,1,0],[0,0.25,0],[0,0.5,0],[0,0.75,0],[1,0.25,0],[1,0.5,0],[1,0.75,0]];outlineConnect=0;fontColor=#232F3E;fillColor=#ED7100;strokeColor=#ffffff;dashed=0;verticalLabelPosition=bottom;verticalAlign=top;align=center;html=1;fontSize=12;fontStyle=0;aspect=fixed;shape=mxgraph.aws4.resourceIcon;resIcon=mxgraph.aws4.ec2;" vertex="1" parent="1">
          <mxGeometry x="409.90000000000003" y="250" width="78" height="78" as="geometry" />
        </mxCell>
        <mxCell id="ZAwZ_gKK3_NqGHiZSW0F-1" value="CERTIFICADOS" style="outlineConnect=0;dashed=0;verticalLabelPosition=bottom;verticalAlign=top;align=center;html=1;shape=mxgraph.aws3.dynamo_db;fillColor=#2E73B8;gradientColor=none;" vertex="1" parent="1">
          <mxGeometry x="413.30000000000007" y="463" width="72" height="81" as="geometry" />
        </mxCell>
        <mxCell id="ZAwZ_gKK3_NqGHiZSW0F-12" style="edgeStyle=orthogonalEdgeStyle;rounded=0;orthogonalLoop=1;jettySize=auto;html=1;startArrow=classic;startFill=1;" edge="1" parent="1" source="ZAwZ_gKK3_NqGHiZSW0F-2" target="KWnV0jBwnBsGN_fAUz4i-7">
          <mxGeometry relative="1" as="geometry" />
        </mxCell>
        <mxCell id="ZAwZ_gKK3_NqGHiZSW0F-2" value="" style="sketch=0;points=[[0,0,0],[0.25,0,0],[0.5,0,0],[0.75,0,0],[1,0,0],[0,1,0],[0.25,1,0],[0.5,1,0],[0.75,1,0],[1,1,0],[0,0.25,0],[0,0.5,0],[0,0.75,0],[1,0.25,0],[1,0.5,0],[1,0.75,0]];outlineConnect=0;fontColor=#232F3E;fillColor=#8C4FFF;strokeColor=#ffffff;dashed=0;verticalLabelPosition=bottom;verticalAlign=top;align=center;html=1;fontSize=12;fontStyle=0;aspect=fixed;shape=mxgraph.aws4.resourceIcon;resIcon=mxgraph.aws4.cloudfront;" vertex="1" parent="1">
          <mxGeometry x="409.90000000000003" y="60" width="78" height="78" as="geometry" />
        </mxCell>
        <mxCell id="ZAwZ_gKK3_NqGHiZSW0F-3" value="&lt;span class=&quot;hljs-punctuation&quot;&gt;{&lt;/span&gt;&lt;br/&gt;  &lt;span class=&quot;hljs-attr&quot;&gt;&quot;cpf_cnpj&quot;&lt;/span&gt;&lt;span class=&quot;hljs-punctuation&quot;&gt;:&lt;/span&gt; &lt;span class=&quot;hljs-string&quot;&gt;&quot;12345678900&quot;&lt;/span&gt;&lt;span class=&quot;hljs-punctuation&quot;&gt;,&lt;/span&gt;&lt;br/&gt;  &lt;span class=&quot;hljs-attr&quot;&gt;&quot;chave_armazenada&quot;&lt;/span&gt;&lt;span class=&quot;hljs-punctuation&quot;&gt;:&lt;/span&gt; &lt;span class=&quot;hljs-literal&quot;&gt;true&lt;/span&gt;&lt;span class=&quot;hljs-punctuation&quot;&gt;,&lt;/span&gt;&lt;br/&gt;  &lt;span class=&quot;hljs-attr&quot;&gt;&quot;data_expiracao&quot;&lt;/span&gt;&lt;span class=&quot;hljs-punctuation&quot;&gt;:&lt;/span&gt; &lt;span class=&quot;hljs-string&quot;&gt;&quot;2026-12-31&quot;&lt;/span&gt;&lt;br/&gt;&lt;span class=&quot;hljs-punctuation&quot;&gt;}&lt;/span&gt;" style="text;html=1;align=center;verticalAlign=middle;resizable=0;points=[];autosize=1;strokeColor=none;fillColor=none;" vertex="1" parent="1">
          <mxGeometry x="477.1" y="469" width="190" height="90" as="geometry" />
        </mxCell>
        <mxCell id="ZAwZ_gKK3_NqGHiZSW0F-4" value="" style="points=[];aspect=fixed;html=1;align=center;shadow=0;dashed=0;fillColor=#FF6A00;strokeColor=none;shape=mxgraph.alibaba_cloud.eventbridge;" vertex="1" parent="1">
          <mxGeometry x="152.1" y="465" width="48.9" height="48.9" as="geometry" />
        </mxCell>
        <mxCell id="ZAwZ_gKK3_NqGHiZSW0F-7" style="edgeStyle=orthogonalEdgeStyle;rounded=0;orthogonalLoop=1;jettySize=auto;html=1;startArrow=classic;startFill=1;" edge="1" parent="1" source="ZAwZ_gKK3_NqGHiZSW0F-6" target="ZAwZ_gKK3_NqGHiZSW0F-1">
          <mxGeometry relative="1" as="geometry" />
        </mxCell>
        <mxCell id="ZAwZ_gKK3_NqGHiZSW0F-9" style="edgeStyle=orthogonalEdgeStyle;rounded=0;orthogonalLoop=1;jettySize=auto;html=1;entryX=0.5;entryY=0;entryDx=0;entryDy=0;" edge="1" parent="1" source="ZAwZ_gKK3_NqGHiZSW0F-6" target="ZAwZ_gKK3_NqGHiZSW0F-8">
          <mxGeometry relative="1" as="geometry" />
        </mxCell>
        <mxCell id="ZAwZ_gKK3_NqGHiZSW0F-6" value="" style="sketch=0;points=[[0,0,0],[0.25,0,0],[0.5,0,0],[0.75,0,0],[1,0,0],[0,1,0],[0.25,1,0],[0.5,1,0],[0.75,1,0],[1,1,0],[0,0.25,0],[0,0.5,0],[0,0.75,0],[1,0.25,0],[1,0.5,0],[1,0.75,0]];outlineConnect=0;fontColor=#232F3E;fillColor=#ED7100;strokeColor=#ffffff;dashed=0;verticalLabelPosition=bottom;verticalAlign=top;align=center;html=1;fontSize=12;fontStyle=0;aspect=fixed;shape=mxgraph.aws4.resourceIcon;resIcon=mxgraph.aws4.lambda;" vertex="1" parent="1">
          <mxGeometry x="204.99999999999997" y="465" width="78" height="78" as="geometry" />
        </mxCell>
        <mxCell id="ZAwZ_gKK3_NqGHiZSW0F-8" value="NOTIFICAR EXPIRAÇÃO DE CHAVE" style="ellipse;whiteSpace=wrap;html=1;" vertex="1" parent="1">
          <mxGeometry x="183.99999999999997" y="619" width="120" height="80" as="geometry" />
        </mxCell>
        <mxCell id="ZAwZ_gKK3_NqGHiZSW0F-11" style="edgeStyle=orthogonalEdgeStyle;rounded=0;orthogonalLoop=1;jettySize=auto;html=1;entryX=0.5;entryY=0;entryDx=0;entryDy=0;entryPerimeter=0;startArrow=classic;startFill=1;" edge="1" parent="1" source="ZAwZ_gKK3_NqGHiZSW0F-2" target="KWnV0jBwnBsGN_fAUz4i-10">
          <mxGeometry relative="1" as="geometry" />
        </mxCell>
        <mxCell id="ZAwZ_gKK3_NqGHiZSW0F-17" style="edgeStyle=orthogonalEdgeStyle;rounded=0;orthogonalLoop=1;jettySize=auto;html=1;entryX=0.5;entryY=1;entryDx=0;entryDy=0;entryPerimeter=0;startArrow=classic;startFill=1;" edge="1" parent="1" source="KWnV0jBwnBsGN_fAUz4i-10" target="KWnV0jBwnBsGN_fAUz4i-7">
          <mxGeometry relative="1" as="geometry">
            <Array as="points">
              <mxPoint x="661.1" y="270" />
            </Array>
          </mxGeometry>
        </mxCell>
        <mxCell id="ZAwZ_gKK3_NqGHiZSW0F-22" value="" style="outlineConnect=0;dashed=0;verticalLabelPosition=bottom;verticalAlign=top;align=center;html=1;shape=mxgraph.aws3.mobile_client;fillColor=#D2D3D3;gradientColor=none;" vertex="1" parent="1">
          <mxGeometry x="362.5" y="20" width="30" height="51.5" as="geometry" />
        </mxCell>
        <mxCell id="ZAwZ_gKK3_NqGHiZSW0F-23" value="desktop" style="sketch=0;outlineConnect=0;gradientColor=none;fontColor=#545B64;strokeColor=none;fillColor=#879196;dashed=0;verticalLabelPosition=bottom;verticalAlign=top;align=center;html=1;fontSize=12;fontStyle=0;aspect=fixed;shape=mxgraph.aws4.illustration_desktop;pointerEvents=1" vertex="1" parent="1">
          <mxGeometry x="355" y="81.55" width="45" height="40.95" as="geometry" />
        </mxCell>
        <mxCell id="KWnV0jBwnBsGN_fAUz4i-8" value="Web PKI /&amp;nbsp;PKI Express" style="rounded=0;whiteSpace=wrap;html=1;" vertex="1" parent="1">
          <mxGeometry x="250.00000000000009" y="40" width="120" height="60" as="geometry" />
        </mxCell>
        <mxCell id="ZAwZ_gKK3_NqGHiZSW0F-25" value="&lt;strong data-end=&quot;3454&quot; data-start=&quot;3439&quot;&gt;Web PKI&lt;/strong&gt; quando quiser que o &lt;strong data-end=&quot;3518&quot; data-start=&quot;3475&quot;&gt;usuário assine diretamente no navegador&lt;/strong&gt;,&amp;nbsp;&lt;div&gt;com sua chave armazenada localmente. Ideal para &lt;strong data-end=&quot;3595&quot; data-start=&quot;3568&quot;&gt;assinaturas individuais&lt;/strong&gt;&lt;/div&gt;&lt;div&gt; e uma experiência mais fluida.&lt;/div&gt;" style="text;html=1;align=center;verticalAlign=middle;resizable=0;points=[];autosize=1;strokeColor=none;fillColor=none;" vertex="1" parent="1">
          <mxGeometry x="370" y="600" width="430" height="60" as="geometry" />
        </mxCell>
        <mxCell id="ZAwZ_gKK3_NqGHiZSW0F-26" value="&lt;strong data-end=&quot;3652&quot; data-start=&quot;3633&quot;&gt;PKI Express&lt;/strong&gt; quando precisar de &lt;strong data-end=&quot;3710&quot; data-start=&quot;3672&quot;&gt;assinaturas automáticas no backend&lt;/strong&gt;,&amp;nbsp;&lt;div&gt;seja para &lt;strong data-end=&quot;3798&quot; data-start=&quot;3722&quot;&gt;assinaturas em lote, automação, integração&lt;/strong&gt;&lt;/div&gt;&lt;div&gt;&lt;strong data-end=&quot;3798&quot; data-start=&quot;3722&quot;&gt;&amp;nbsp;com HSMs ou serviços internos&lt;/strong&gt;&lt;/div&gt;" style="text;html=1;align=center;verticalAlign=middle;resizable=0;points=[];autosize=1;strokeColor=none;fillColor=none;" vertex="1" parent="1">
          <mxGeometry x="370" y="673" width="420" height="60" as="geometry" />
        </mxCell>
        <mxCell id="JiqwQ6ONMKmv9wXIxY1t-1" value="&lt;span style=&quot;box-sizing: inherit; color: rgb(0, 0, 0); font-family: roboto, sans-serif; text-align: left; text-wrap: wrap; background-color: rgb(255, 255, 255);&quot;&gt;&lt;font style=&quot;font-size: 16px;&quot;&gt;Web PKI&lt;/font&gt;&lt;/span&gt;" style="sketch=0;points=[[0,0,0],[0.25,0,0],[0.5,0,0],[0.75,0,0],[1,0,0],[0,1,0],[0.25,1,0],[0.5,1,0],[0.75,1,0],[1,1,0],[0,0.25,0],[0,0.5,0],[0,0.75,0],[1,0.25,0],[1,0.5,0],[1,0.75,0]];outlineConnect=0;fontColor=#232F3E;fillColor=#8C4FFF;strokeColor=#ffffff;dashed=0;verticalLabelPosition=bottom;verticalAlign=top;align=center;html=1;fontSize=12;fontStyle=0;aspect=fixed;shape=mxgraph.aws4.resourceIcon;resIcon=mxgraph.aws4.cloudfront;" vertex="1" parent="1">
          <mxGeometry x="1000" y="60" width="78" height="78" as="geometry" />
        </mxCell>
        <mxCell id="JiqwQ6ONMKmv9wXIxY1t-7" style="edgeStyle=orthogonalEdgeStyle;rounded=0;orthogonalLoop=1;jettySize=auto;html=1;" edge="1" parent="1" source="JiqwQ6ONMKmv9wXIxY1t-2" target="JiqwQ6ONMKmv9wXIxY1t-6">
          <mxGeometry relative="1" as="geometry" />
        </mxCell>
        <mxCell id="JiqwQ6ONMKmv9wXIxY1t-2" value="API ASSINATURA" style="sketch=0;points=[[0,0,0],[0.25,0,0],[0.5,0,0],[0.75,0,0],[1,0,0],[0,1,0],[0.25,1,0],[0.5,1,0],[0.75,1,0],[1,1,0],[0,0.25,0],[0,0.5,0],[0,0.75,0],[1,0.25,0],[1,0.5,0],[1,0.75,0]];outlineConnect=0;fontColor=#232F3E;fillColor=#ED7100;strokeColor=#ffffff;dashed=0;verticalLabelPosition=bottom;verticalAlign=top;align=center;html=1;fontSize=12;fontStyle=0;aspect=fixed;shape=mxgraph.aws4.resourceIcon;resIcon=mxgraph.aws4.ec2;" vertex="1" parent="1">
          <mxGeometry x="1000" y="240" width="78" height="78" as="geometry" />
        </mxCell>
        <mxCell id="JiqwQ6ONMKmv9wXIxY1t-3" style="edgeStyle=orthogonalEdgeStyle;rounded=0;orthogonalLoop=1;jettySize=auto;html=1;entryX=0.5;entryY=0;entryDx=0;entryDy=0;entryPerimeter=0;startArrow=classic;startFill=1;" edge="1" parent="1" source="JiqwQ6ONMKmv9wXIxY1t-1" target="JiqwQ6ONMKmv9wXIxY1t-2">
          <mxGeometry relative="1" as="geometry" />
        </mxCell>
        <mxCell id="JiqwQ6ONMKmv9wXIxY1t-4" value="METADADOS PARTICIPANTE" style="outlineConnect=0;dashed=0;verticalLabelPosition=bottom;verticalAlign=top;align=center;html=1;shape=mxgraph.aws3.dynamo_db;fillColor=#2E73B8;gradientColor=none;" vertex="1" parent="1">
          <mxGeometry x="1276" y="199.5" width="72" height="81" as="geometry" />
        </mxCell>
        <mxCell id="JiqwQ6ONMKmv9wXIxY1t-5" value="PARTICIPANTES" style="outlineConnect=0;dashed=0;verticalLabelPosition=bottom;verticalAlign=top;align=center;html=1;shape=mxgraph.aws3.dynamo_db;fillColor=#2E73B8;gradientColor=none;" vertex="1" parent="1">
          <mxGeometry x="1276" y="340" width="72" height="81" as="geometry" />
        </mxCell>
        <mxCell id="JiqwQ6ONMKmv9wXIxY1t-12" style="edgeStyle=orthogonalEdgeStyle;rounded=0;orthogonalLoop=1;jettySize=auto;html=1;" edge="1" parent="1" source="JiqwQ6ONMKmv9wXIxY1t-6" target="JiqwQ6ONMKmv9wXIxY1t-8">
          <mxGeometry relative="1" as="geometry" />
        </mxCell>
        <mxCell id="JiqwQ6ONMKmv9wXIxY1t-6" value="" style="sketch=0;points=[[0,0,0],[0.25,0,0],[0.5,0,0],[0.75,0,0],[1,0,0],[0,1,0],[0.25,1,0],[0.5,1,0],[0.75,1,0],[1,1,0],[0,0.25,0],[0,0.5,0],[0,0.75,0],[1,0.25,0],[1,0.5,0],[1,0.75,0]];outlineConnect=0;fontColor=#232F3E;fillColor=#E7157B;strokeColor=#ffffff;dashed=0;verticalLabelPosition=bottom;verticalAlign=top;align=center;html=1;fontSize=12;fontStyle=0;aspect=fixed;shape=mxgraph.aws4.resourceIcon;resIcon=mxgraph.aws4.sqs;" vertex="1" parent="1">
          <mxGeometry x="1000" y="420" width="78" height="78" as="geometry" />
        </mxCell>
        <mxCell id="JiqwQ6ONMKmv9wXIxY1t-13" style="edgeStyle=orthogonalEdgeStyle;rounded=0;orthogonalLoop=1;jettySize=auto;html=1;startArrow=classic;startFill=1;" edge="1" parent="1" source="JiqwQ6ONMKmv9wXIxY1t-8" target="JiqwQ6ONMKmv9wXIxY1t-5">
          <mxGeometry relative="1" as="geometry" />
        </mxCell>
        <mxCell id="JiqwQ6ONMKmv9wXIxY1t-8" value="CRUD" style="sketch=0;points=[[0,0,0],[0.25,0,0],[0.5,0,0],[0.75,0,0],[1,0,0],[0,1,0],[0.25,1,0],[0.5,1,0],[0.75,1,0],[1,1,0],[0,0.25,0],[0,0.5,0],[0,0.75,0],[1,0.25,0],[1,0.5,0],[1,0.75,0]];outlineConnect=0;fontColor=#232F3E;fillColor=#ED7100;strokeColor=#ffffff;dashed=0;verticalLabelPosition=bottom;verticalAlign=top;align=center;html=1;fontSize=12;fontStyle=0;aspect=fixed;shape=mxgraph.aws4.resourceIcon;resIcon=mxgraph.aws4.ec2;" vertex="1" parent="1">
          <mxGeometry x="1000" y="600" width="78" height="78" as="geometry" />
        </mxCell>
        <mxCell id="JiqwQ6ONMKmv9wXIxY1t-9" value="" style="sketch=0;points=[[0,0,0],[0.25,0,0],[0.5,0,0],[0.75,0,0],[1,0,0],[0,1,0],[0.25,1,0],[0.5,1,0],[0.75,1,0],[1,1,0],[0,0.25,0],[0,0.5,0],[0,0.75,0],[1,0.25,0],[1,0.5,0],[1,0.75,0]];outlineConnect=0;fontColor=#232F3E;fillColor=#7AA116;strokeColor=#ffffff;dashed=0;verticalLabelPosition=bottom;verticalAlign=top;align=center;html=1;fontSize=12;fontStyle=0;aspect=fixed;shape=mxgraph.aws4.resourceIcon;resIcon=mxgraph.aws4.s3;" vertex="1" parent="1">
          <mxGeometry x="1270" y="60" width="78" height="78" as="geometry" />
        </mxCell>
        <mxCell id="JiqwQ6ONMKmv9wXIxY1t-10" style="edgeStyle=orthogonalEdgeStyle;rounded=0;orthogonalLoop=1;jettySize=auto;html=1;entryX=0;entryY=0.5;entryDx=0;entryDy=0;entryPerimeter=0;startArrow=classic;startFill=1;" edge="1" parent="1" source="JiqwQ6ONMKmv9wXIxY1t-1" target="JiqwQ6ONMKmv9wXIxY1t-9">
          <mxGeometry relative="1" as="geometry" />
        </mxCell>
        <mxCell id="JiqwQ6ONMKmv9wXIxY1t-14" style="edgeStyle=orthogonalEdgeStyle;rounded=0;orthogonalLoop=1;jettySize=auto;html=1;exitX=1;exitY=0.25;exitDx=0;exitDy=0;exitPerimeter=0;entryX=0;entryY=0.5;entryDx=0;entryDy=0;entryPerimeter=0;startArrow=classic;startFill=1;" edge="1" parent="1" source="JiqwQ6ONMKmv9wXIxY1t-8" target="JiqwQ6ONMKmv9wXIxY1t-4">
          <mxGeometry relative="1" as="geometry" />
        </mxCell>
        <mxCell id="JiqwQ6ONMKmv9wXIxY1t-15" value="ORDENS" style="outlineConnect=0;dashed=0;verticalLabelPosition=bottom;verticalAlign=top;align=center;html=1;shape=mxgraph.aws3.dynamo_db;fillColor=#2E73B8;gradientColor=none;" vertex="1" parent="1">
          <mxGeometry x="1276" y="699" width="72" height="81" as="geometry" />
        </mxCell>
        <mxCell id="JiqwQ6ONMKmv9wXIxY1t-16" style="edgeStyle=orthogonalEdgeStyle;rounded=0;orthogonalLoop=1;jettySize=auto;html=1;entryX=0;entryY=0.5;entryDx=0;entryDy=0;entryPerimeter=0;startArrow=classic;startFill=1;" edge="1" parent="1" source="JiqwQ6ONMKmv9wXIxY1t-8" target="JiqwQ6ONMKmv9wXIxY1t-15">
          <mxGeometry relative="1" as="geometry">
            <Array as="points">
              <mxPoint x="1039" y="740" />
              <mxPoint x="1177" y="740" />
            </Array>
          </mxGeometry>
        </mxCell>
        <mxCell id="JiqwQ6ONMKmv9wXIxY1t-17" value="&lt;span style=&quot;box-sizing: inherit; color: rgb(0, 0, 0); font-family: roboto, sans-serif; font-size: 16px; text-align: left; text-wrap: wrap; background-color: rgb(255, 255, 255);&quot;&gt;&amp;nbsp;PKI Express&lt;/span&gt;" style="sketch=0;points=[[0,0,0],[0.25,0,0],[0.5,0,0],[0.75,0,0],[1,0,0],[0,1,0],[0.25,1,0],[0.5,1,0],[0.75,1,0],[1,1,0],[0,0.25,0],[0,0.5,0],[0,0.75,0],[1,0.25,0],[1,0.5,0],[1,0.75,0]];outlineConnect=0;fontColor=#232F3E;fillColor=#8C4FFF;strokeColor=#ffffff;dashed=0;verticalLabelPosition=bottom;verticalAlign=top;align=center;html=1;fontSize=12;fontStyle=0;aspect=fixed;shape=mxgraph.aws4.resourceIcon;resIcon=mxgraph.aws4.cloudfront;" vertex="1" parent="1">
          <mxGeometry x="1940" y="61.5" width="78" height="78" as="geometry" />
        </mxCell>
        <mxCell id="JiqwQ6ONMKmv9wXIxY1t-18" style="edgeStyle=orthogonalEdgeStyle;rounded=0;orthogonalLoop=1;jettySize=auto;html=1;" edge="1" parent="1" source="JiqwQ6ONMKmv9wXIxY1t-19" target="JiqwQ6ONMKmv9wXIxY1t-24">
          <mxGeometry relative="1" as="geometry" />
        </mxCell>
        <mxCell id="JiqwQ6ONMKmv9wXIxY1t-36" style="edgeStyle=orthogonalEdgeStyle;rounded=0;orthogonalLoop=1;jettySize=auto;html=1;startArrow=classic;startFill=1;" edge="1" parent="1" source="JiqwQ6ONMKmv9wXIxY1t-19" target="JiqwQ6ONMKmv9wXIxY1t-34">
          <mxGeometry relative="1" as="geometry" />
        </mxCell>
        <mxCell id="JiqwQ6ONMKmv9wXIxY1t-19" value="API ASSINATURA" style="sketch=0;points=[[0,0,0],[0.25,0,0],[0.5,0,0],[0.75,0,0],[1,0,0],[0,1,0],[0.25,1,0],[0.5,1,0],[0.75,1,0],[1,1,0],[0,0.25,0],[0,0.5,0],[0,0.75,0],[1,0.25,0],[1,0.5,0],[1,0.75,0]];outlineConnect=0;fontColor=#232F3E;fillColor=#ED7100;strokeColor=#ffffff;dashed=0;verticalLabelPosition=bottom;verticalAlign=top;align=center;html=1;fontSize=12;fontStyle=0;aspect=fixed;shape=mxgraph.aws4.resourceIcon;resIcon=mxgraph.aws4.ec2;" vertex="1" parent="1">
          <mxGeometry x="1940" y="241.5" width="78" height="78" as="geometry" />
        </mxCell>
        <mxCell id="JiqwQ6ONMKmv9wXIxY1t-20" style="edgeStyle=orthogonalEdgeStyle;rounded=0;orthogonalLoop=1;jettySize=auto;html=1;entryX=0.5;entryY=0;entryDx=0;entryDy=0;entryPerimeter=0;startArrow=classic;startFill=1;" edge="1" parent="1" source="JiqwQ6ONMKmv9wXIxY1t-17" target="JiqwQ6ONMKmv9wXIxY1t-19">
          <mxGeometry relative="1" as="geometry" />
        </mxCell>
        <mxCell id="JiqwQ6ONMKmv9wXIxY1t-21" value="METADADOS PARTICIPANTE" style="outlineConnect=0;dashed=0;verticalLabelPosition=bottom;verticalAlign=top;align=center;html=1;shape=mxgraph.aws3.dynamo_db;fillColor=#2E73B8;gradientColor=none;" vertex="1" parent="1">
          <mxGeometry x="2216" y="201" width="72" height="81" as="geometry" />
        </mxCell>
        <mxCell id="JiqwQ6ONMKmv9wXIxY1t-22" value="PARTICIPANTES" style="outlineConnect=0;dashed=0;verticalLabelPosition=bottom;verticalAlign=top;align=center;html=1;shape=mxgraph.aws3.dynamo_db;fillColor=#2E73B8;gradientColor=none;" vertex="1" parent="1">
          <mxGeometry x="2216" y="341.5" width="72" height="81" as="geometry" />
        </mxCell>
        <mxCell id="JiqwQ6ONMKmv9wXIxY1t-23" style="edgeStyle=orthogonalEdgeStyle;rounded=0;orthogonalLoop=1;jettySize=auto;html=1;" edge="1" parent="1" source="JiqwQ6ONMKmv9wXIxY1t-24" target="JiqwQ6ONMKmv9wXIxY1t-26">
          <mxGeometry relative="1" as="geometry" />
        </mxCell>
        <mxCell id="JiqwQ6ONMKmv9wXIxY1t-24" value="" style="sketch=0;points=[[0,0,0],[0.25,0,0],[0.5,0,0],[0.75,0,0],[1,0,0],[0,1,0],[0.25,1,0],[0.5,1,0],[0.75,1,0],[1,1,0],[0,0.25,0],[0,0.5,0],[0,0.75,0],[1,0.25,0],[1,0.5,0],[1,0.75,0]];outlineConnect=0;fontColor=#232F3E;fillColor=#E7157B;strokeColor=#ffffff;dashed=0;verticalLabelPosition=bottom;verticalAlign=top;align=center;html=1;fontSize=12;fontStyle=0;aspect=fixed;shape=mxgraph.aws4.resourceIcon;resIcon=mxgraph.aws4.sqs;" vertex="1" parent="1">
          <mxGeometry x="1940" y="421.5" width="78" height="78" as="geometry" />
        </mxCell>
        <mxCell id="JiqwQ6ONMKmv9wXIxY1t-25" style="edgeStyle=orthogonalEdgeStyle;rounded=0;orthogonalLoop=1;jettySize=auto;html=1;startArrow=classic;startFill=1;" edge="1" parent="1" source="JiqwQ6ONMKmv9wXIxY1t-26" target="JiqwQ6ONMKmv9wXIxY1t-22">
          <mxGeometry relative="1" as="geometry" />
        </mxCell>
        <mxCell id="JiqwQ6ONMKmv9wXIxY1t-26" value="CRUD" style="sketch=0;points=[[0,0,0],[0.25,0,0],[0.5,0,0],[0.75,0,0],[1,0,0],[0,1,0],[0.25,1,0],[0.5,1,0],[0.75,1,0],[1,1,0],[0,0.25,0],[0,0.5,0],[0,0.75,0],[1,0.25,0],[1,0.5,0],[1,0.75,0]];outlineConnect=0;fontColor=#232F3E;fillColor=#ED7100;strokeColor=#ffffff;dashed=0;verticalLabelPosition=bottom;verticalAlign=top;align=center;html=1;fontSize=12;fontStyle=0;aspect=fixed;shape=mxgraph.aws4.resourceIcon;resIcon=mxgraph.aws4.ec2;" vertex="1" parent="1">
          <mxGeometry x="1940" y="601.5" width="78" height="78" as="geometry" />
        </mxCell>
        <mxCell id="JiqwQ6ONMKmv9wXIxY1t-29" style="edgeStyle=orthogonalEdgeStyle;rounded=0;orthogonalLoop=1;jettySize=auto;html=1;exitX=1;exitY=0.25;exitDx=0;exitDy=0;exitPerimeter=0;entryX=0;entryY=0.5;entryDx=0;entryDy=0;entryPerimeter=0;startArrow=classic;startFill=1;" edge="1" parent="1" source="JiqwQ6ONMKmv9wXIxY1t-26" target="JiqwQ6ONMKmv9wXIxY1t-21">
          <mxGeometry relative="1" as="geometry" />
        </mxCell>
        <mxCell id="JiqwQ6ONMKmv9wXIxY1t-30" value="ORDENS" style="outlineConnect=0;dashed=0;verticalLabelPosition=bottom;verticalAlign=top;align=center;html=1;shape=mxgraph.aws3.dynamo_db;fillColor=#2E73B8;gradientColor=none;" vertex="1" parent="1">
          <mxGeometry x="2216" y="700.5" width="72" height="81" as="geometry" />
        </mxCell>
        <mxCell id="JiqwQ6ONMKmv9wXIxY1t-31" style="edgeStyle=orthogonalEdgeStyle;rounded=0;orthogonalLoop=1;jettySize=auto;html=1;entryX=0;entryY=0.5;entryDx=0;entryDy=0;entryPerimeter=0;startArrow=classic;startFill=1;" edge="1" parent="1" source="JiqwQ6ONMKmv9wXIxY1t-26" target="JiqwQ6ONMKmv9wXIxY1t-30">
          <mxGeometry relative="1" as="geometry">
            <Array as="points">
              <mxPoint x="1979" y="741.5" />
              <mxPoint x="2117" y="741.5" />
            </Array>
          </mxGeometry>
        </mxCell>
        <mxCell id="JiqwQ6ONMKmv9wXIxY1t-32" value="CERTIFICADOS" style="outlineConnect=0;dashed=0;verticalLabelPosition=bottom;verticalAlign=top;align=center;html=1;shape=mxgraph.aws3.dynamo_db;fillColor=#2E73B8;gradientColor=none;" vertex="1" parent="1">
          <mxGeometry x="2216" y="60" width="72" height="81" as="geometry" />
        </mxCell>
        <mxCell id="JiqwQ6ONMKmv9wXIxY1t-33" style="edgeStyle=orthogonalEdgeStyle;rounded=0;orthogonalLoop=1;jettySize=auto;html=1;entryX=0;entryY=0.5;entryDx=0;entryDy=0;entryPerimeter=0;startArrow=classic;startFill=1;" edge="1" parent="1" source="JiqwQ6ONMKmv9wXIxY1t-19" target="JiqwQ6ONMKmv9wXIxY1t-32">
          <mxGeometry relative="1" as="geometry">
            <Array as="points">
              <mxPoint x="2070" y="280.5" />
              <mxPoint x="2070" y="100.5" />
            </Array>
          </mxGeometry>
        </mxCell>
        <mxCell id="JiqwQ6ONMKmv9wXIxY1t-34" value="" style="sketch=0;points=[[0,0,0],[0.25,0,0],[0.5,0,0],[0.75,0,0],[1,0,0],[0,1,0],[0.25,1,0],[0.5,1,0],[0.75,1,0],[1,1,0],[0,0.25,0],[0,0.5,0],[0,0.75,0],[1,0.25,0],[1,0.5,0],[1,0.75,0]];outlineConnect=0;fontColor=#232F3E;fillColor=#DD344C;strokeColor=#ffffff;dashed=0;verticalLabelPosition=bottom;verticalAlign=top;align=center;html=1;fontSize=12;fontStyle=0;aspect=fixed;shape=mxgraph.aws4.resourceIcon;resIcon=mxgraph.aws4.cloudhsm;" vertex="1" parent="1">
          <mxGeometry x="1760" y="241.5" width="78" height="78" as="geometry" />
        </mxCell>
        <mxCell id="JiqwQ6ONMKmv9wXIxY1t-35" value="Cloud PKI / HSM" style="rounded=0;whiteSpace=wrap;html=1;" vertex="1" parent="1">
          <mxGeometry x="1700" y="201.5" width="120" height="60" as="geometry" />
        </mxCell>
      </root>
    </mxGraphModel>
  </diagram>
  <diagram id="BEn-zrwI8ASn324jMQmk" name="PARAMETRIZADOR">
    <mxGraphModel dx="1434" dy="844" grid="1" gridSize="10" guides="1" tooltips="1" connect="1" arrows="1" fold="1" page="1" pageScale="1" pageWidth="827" pageHeight="1169" math="0" shadow="0">
      <root>
        <mxCell id="0" />
        <mxCell id="1" parent="0" />
        <mxCell id="_H4QKjVuvs0xHmj5kHi2-6" value="DOMINIO" style="sketch=0;points=[[0,0,0],[0.25,0,0],[0.5,0,0],[0.75,0,0],[1,0,0],[0,1,0],[0.25,1,0],[0.5,1,0],[0.75,1,0],[1,1,0],[0,0.25,0],[0,0.5,0],[0,0.75,0],[1,0.25,0],[1,0.5,0],[1,0.75,0]];outlineConnect=0;fontColor=#232F3E;fillColor=#C925D1;strokeColor=#ffffff;dashed=0;verticalLabelPosition=bottom;verticalAlign=top;align=center;html=1;fontSize=12;fontStyle=0;aspect=fixed;shape=mxgraph.aws4.resourceIcon;resIcon=mxgraph.aws4.dynamodb;" vertex="1" parent="1">
          <mxGeometry x="240" y="50" width="78" height="78" as="geometry" />
        </mxCell>
        <mxCell id="_H4QKjVuvs0xHmj5kHi2-8" style="edgeStyle=orthogonalEdgeStyle;rounded=0;orthogonalLoop=1;jettySize=auto;html=1;startArrow=classic;startFill=1;" edge="1" parent="1" source="_H4QKjVuvs0xHmj5kHi2-7" target="_H4QKjVuvs0xHmj5kHi2-6">
          <mxGeometry relative="1" as="geometry" />
        </mxCell>
        <mxCell id="_H4QKjVuvs0xHmj5kHi2-7" value="API DE DOMINIOS" style="sketch=0;points=[[0,0,0],[0.25,0,0],[0.5,0,0],[0.75,0,0],[1,0,0],[0,1,0],[0.25,1,0],[0.5,1,0],[0.75,1,0],[1,1,0],[0,0.25,0],[0,0.5,0],[0,0.75,0],[1,0.25,0],[1,0.5,0],[1,0.75,0]];outlineConnect=0;fontColor=#232F3E;fillColor=#ED7100;strokeColor=#ffffff;dashed=0;verticalLabelPosition=bottom;verticalAlign=top;align=center;html=1;fontSize=12;fontStyle=0;aspect=fixed;shape=mxgraph.aws4.resourceIcon;resIcon=mxgraph.aws4.ec2;" vertex="1" parent="1">
          <mxGeometry x="90" y="50" width="78" height="78" as="geometry" />
        </mxCell>
        <mxCell id="_H4QKjVuvs0xHmj5kHi2-46" style="edgeStyle=orthogonalEdgeStyle;rounded=0;orthogonalLoop=1;jettySize=auto;html=1;" edge="1" parent="1" source="_H4QKjVuvs0xHmj5kHi2-29" target="_H4QKjVuvs0xHmj5kHi2-40">
          <mxGeometry relative="1" as="geometry" />
        </mxCell>
        <mxCell id="_H4QKjVuvs0xHmj5kHi2-29" value="PARAMETRO" style="sketch=0;points=[[0,0,0],[0.25,0,0],[0.5,0,0],[0.75,0,0],[1,0,0],[0,1,0],[0.25,1,0],[0.5,1,0],[0.75,1,0],[1,1,0],[0,0.25,0],[0,0.5,0],[0,0.75,0],[1,0.25,0],[1,0.5,0],[1,0.75,0]];outlineConnect=0;fontColor=#232F3E;fillColor=#C925D1;strokeColor=#ffffff;dashed=0;verticalLabelPosition=bottom;verticalAlign=top;align=center;html=1;fontSize=12;fontStyle=0;aspect=fixed;shape=mxgraph.aws4.resourceIcon;resIcon=mxgraph.aws4.rds;" vertex="1" parent="1">
          <mxGeometry x="90" y="520" width="78" height="78" as="geometry" />
        </mxCell>
        <mxCell id="_H4QKjVuvs0xHmj5kHi2-54" style="edgeStyle=orthogonalEdgeStyle;rounded=0;orthogonalLoop=1;jettySize=auto;html=1;" edge="1" parent="1" source="_H4QKjVuvs0xHmj5kHi2-31" target="_H4QKjVuvs0xHmj5kHi2-53">
          <mxGeometry relative="1" as="geometry" />
        </mxCell>
        <mxCell id="_H4QKjVuvs0xHmj5kHi2-31" value="PARAMETRIZADOR" style="sketch=0;points=[[0,0,0],[0.25,0,0],[0.5,0,0],[0.75,0,0],[1,0,0],[0,1,0],[0.25,1,0],[0.5,1,0],[0.75,1,0],[1,1,0],[0,0.25,0],[0,0.5,0],[0,0.75,0],[1,0.25,0],[1,0.5,0],[1,0.75,0]];outlineConnect=0;fontColor=#232F3E;fillColor=#ED7100;strokeColor=#ffffff;dashed=0;verticalLabelPosition=bottom;verticalAlign=top;align=center;html=1;fontSize=12;fontStyle=0;aspect=fixed;shape=mxgraph.aws4.resourceIcon;resIcon=mxgraph.aws4.ec2;" vertex="1" parent="1">
          <mxGeometry x="314.25" y="380" width="78" height="78" as="geometry" />
        </mxCell>
        <mxCell id="_H4QKjVuvs0xHmj5kHi2-38" style="edgeStyle=orthogonalEdgeStyle;rounded=0;orthogonalLoop=1;jettySize=auto;html=1;" edge="1" parent="1" source="_H4QKjVuvs0xHmj5kHi2-32" target="_H4QKjVuvs0xHmj5kHi2-33">
          <mxGeometry relative="1" as="geometry" />
        </mxCell>
        <mxCell id="_H4QKjVuvs0xHmj5kHi2-32" value="BFF" style="sketch=0;points=[[0,0,0],[0.25,0,0],[0.5,0,0],[0.75,0,0],[1,0,0],[0,1,0],[0.25,1,0],[0.5,1,0],[0.75,1,0],[1,1,0],[0,0.25,0],[0,0.5,0],[0,0.75,0],[1,0.25,0],[1,0.5,0],[1,0.75,0]];outlineConnect=0;fontColor=#232F3E;fillColor=#ED7100;strokeColor=#ffffff;dashed=0;verticalLabelPosition=bottom;verticalAlign=top;align=center;html=1;fontSize=12;fontStyle=0;aspect=fixed;shape=mxgraph.aws4.resourceIcon;resIcon=mxgraph.aws4.ec2;" vertex="1" parent="1">
          <mxGeometry x="500" y="310" width="78" height="78" as="geometry" />
        </mxCell>
        <mxCell id="_H4QKjVuvs0xHmj5kHi2-33" value="CANAL" style="sketch=0;points=[[0,0,0],[0.25,0,0],[0.5,0,0],[0.75,0,0],[1,0,0],[0,1,0],[0.25,1,0],[0.5,1,0],[0.75,1,0],[1,1,0],[0,0.25,0],[0,0.5,0],[0,0.75,0],[1,0.25,0],[1,0.5,0],[1,0.75,0]];outlineConnect=0;fontColor=#232F3E;fillColor=#8C4FFF;strokeColor=#ffffff;dashed=0;verticalLabelPosition=bottom;verticalAlign=top;align=center;html=1;fontSize=12;fontStyle=0;aspect=fixed;shape=mxgraph.aws4.resourceIcon;resIcon=mxgraph.aws4.cloudfront;" vertex="1" parent="1">
          <mxGeometry x="686" y="310" width="78" height="78" as="geometry" />
        </mxCell>
        <mxCell id="_H4QKjVuvs0xHmj5kHi2-34" value="CLOUDMAP" style="outlineConnect=0;dashed=0;verticalLabelPosition=bottom;verticalAlign=top;align=center;html=1;shape=mxgraph.aws3.route_53;fillColor=#F58536;gradientColor=none;" vertex="1" parent="1">
          <mxGeometry x="318" y="200" width="70.5" height="85.5" as="geometry" />
        </mxCell>
        <mxCell id="_H4QKjVuvs0xHmj5kHi2-37" style="edgeStyle=orthogonalEdgeStyle;rounded=0;orthogonalLoop=1;jettySize=auto;html=1;entryX=1;entryY=0.5;entryDx=0;entryDy=0;entryPerimeter=0;" edge="1" parent="1" source="_H4QKjVuvs0xHmj5kHi2-32" target="_H4QKjVuvs0xHmj5kHi2-34">
          <mxGeometry relative="1" as="geometry" />
        </mxCell>
        <mxCell id="_H4QKjVuvs0xHmj5kHi2-40" value="REDIS" style="outlineConnect=0;dashed=0;verticalLabelPosition=bottom;verticalAlign=top;align=center;html=1;shape=mxgraph.aws3.elasticache;fillColor=#2E73B8;gradientColor=none;" vertex="1" parent="1">
          <mxGeometry x="172.5" y="378.5" width="67.5" height="81" as="geometry" />
        </mxCell>
        <mxCell id="_H4QKjVuvs0xHmj5kHi2-44" style="edgeStyle=orthogonalEdgeStyle;rounded=0;orthogonalLoop=1;jettySize=auto;html=1;entryX=0.71;entryY=0.5;entryDx=0;entryDy=0;entryPerimeter=0;" edge="1" parent="1" source="_H4QKjVuvs0xHmj5kHi2-31" target="_H4QKjVuvs0xHmj5kHi2-40">
          <mxGeometry relative="1" as="geometry" />
        </mxCell>
        <mxCell id="_H4QKjVuvs0xHmj5kHi2-50" style="edgeStyle=orthogonalEdgeStyle;rounded=0;orthogonalLoop=1;jettySize=auto;html=1;" edge="1" parent="1" source="_H4QKjVuvs0xHmj5kHi2-47" target="_H4QKjVuvs0xHmj5kHi2-34">
          <mxGeometry relative="1" as="geometry" />
        </mxCell>
        <mxCell id="_H4QKjVuvs0xHmj5kHi2-47" value="CRIAR" style="sketch=0;points=[[0,0,0],[0.25,0,0],[0.5,0,0],[0.75,0,0],[1,0,0],[0,1,0],[0.25,1,0],[0.5,1,0],[0.75,1,0],[1,1,0],[0,0.25,0],[0,0.5,0],[0,0.75,0],[1,0.25,0],[1,0.5,0],[1,0.75,0]];outlineConnect=0;fontColor=#232F3E;fillColor=#ED7100;strokeColor=#ffffff;dashed=0;verticalLabelPosition=bottom;verticalAlign=top;align=center;html=1;fontSize=12;fontStyle=0;aspect=fixed;shape=mxgraph.aws4.resourceIcon;resIcon=mxgraph.aws4.ec2;" vertex="1" parent="1">
          <mxGeometry x="440" y="40" width="78" height="78" as="geometry" />
        </mxCell>
        <mxCell id="_H4QKjVuvs0xHmj5kHi2-48" value="EDITAR" style="sketch=0;points=[[0,0,0],[0.25,0,0],[0.5,0,0],[0.75,0,0],[1,0,0],[0,1,0],[0.25,1,0],[0.5,1,0],[0.75,1,0],[1,1,0],[0,0.25,0],[0,0.5,0],[0,0.75,0],[1,0.25,0],[1,0.5,0],[1,0.75,0]];outlineConnect=0;fontColor=#232F3E;fillColor=#ED7100;strokeColor=#ffffff;dashed=0;verticalLabelPosition=bottom;verticalAlign=top;align=center;html=1;fontSize=12;fontStyle=0;aspect=fixed;shape=mxgraph.aws4.resourceIcon;resIcon=mxgraph.aws4.ec2;" vertex="1" parent="1">
          <mxGeometry x="550" y="40" width="78" height="78" as="geometry" />
        </mxCell>
        <mxCell id="_H4QKjVuvs0xHmj5kHi2-49" value="ASSINAR" style="sketch=0;points=[[0,0,0],[0.25,0,0],[0.5,0,0],[0.75,0,0],[1,0,0],[0,1,0],[0.25,1,0],[0.5,1,0],[0.75,1,0],[1,1,0],[0,0.25,0],[0,0.5,0],[0,0.75,0],[1,0.25,0],[1,0.5,0],[1,0.75,0]];outlineConnect=0;fontColor=#232F3E;fillColor=#ED7100;strokeColor=#ffffff;dashed=0;verticalLabelPosition=bottom;verticalAlign=top;align=center;html=1;fontSize=12;fontStyle=0;aspect=fixed;shape=mxgraph.aws4.resourceIcon;resIcon=mxgraph.aws4.ec2;" vertex="1" parent="1">
          <mxGeometry x="660" y="40" width="78" height="78" as="geometry" />
        </mxCell>
        <mxCell id="_H4QKjVuvs0xHmj5kHi2-51" value="BFF" style="sketch=0;points=[[0,0,0],[0.25,0,0],[0.5,0,0],[0.75,0,0],[1,0,0],[0,1,0],[0.25,1,0],[0.5,1,0],[0.75,1,0],[1,1,0],[0,0.25,0],[0,0.5,0],[0,0.75,0],[1,0.25,0],[1,0.5,0],[1,0.75,0]];outlineConnect=0;fontColor=#232F3E;fillColor=#ED7100;strokeColor=#ffffff;dashed=0;verticalLabelPosition=bottom;verticalAlign=top;align=center;html=1;fontSize=12;fontStyle=0;aspect=fixed;shape=mxgraph.aws4.resourceIcon;resIcon=mxgraph.aws4.ec2;" vertex="1" parent="1">
          <mxGeometry x="660" y="160" width="78" height="78" as="geometry" />
        </mxCell>
        <mxCell id="_H4QKjVuvs0xHmj5kHi2-52" value="PORTAL" style="sketch=0;points=[[0,0,0],[0.25,0,0],[0.5,0,0],[0.75,0,0],[1,0,0],[0,1,0],[0.25,1,0],[0.5,1,0],[0.75,1,0],[1,1,0],[0,0.25,0],[0,0.5,0],[0,0.75,0],[1,0.25,0],[1,0.5,0],[1,0.75,0]];outlineConnect=0;fontColor=#232F3E;fillColor=#ED7100;strokeColor=#ffffff;dashed=0;verticalLabelPosition=bottom;verticalAlign=top;align=center;html=1;fontSize=12;fontStyle=0;aspect=fixed;shape=mxgraph.aws4.resourceIcon;resIcon=mxgraph.aws4.ec2;" vertex="1" parent="1">
          <mxGeometry x="550" y="160" width="78" height="78" as="geometry" />
        </mxCell>
        <mxCell id="_H4QKjVuvs0xHmj5kHi2-57" style="edgeStyle=orthogonalEdgeStyle;rounded=0;orthogonalLoop=1;jettySize=auto;html=1;" edge="1" parent="1" source="_H4QKjVuvs0xHmj5kHi2-53" target="_H4QKjVuvs0xHmj5kHi2-31">
          <mxGeometry relative="1" as="geometry" />
        </mxCell>
        <mxCell id="_H4QKjVuvs0xHmj5kHi2-53" value="VPC PEERING" style="outlineConnect=0;dashed=0;verticalLabelPosition=bottom;verticalAlign=top;align=center;html=1;shape=mxgraph.aws3.vpc_peering;fillColor=#F58534;gradientColor=none;" vertex="1" parent="1">
          <mxGeometry x="460" y="549" width="69" height="72" as="geometry" />
        </mxCell>
        <mxCell id="_H4QKjVuvs0xHmj5kHi2-58" value="AUTOMAÇÃO&lt;div&gt;EXTERNA&lt;/div&gt;" style="rounded=1;whiteSpace=wrap;html=1;" vertex="1" parent="1">
          <mxGeometry x="508" y="529" width="120" height="60" as="geometry" />
        </mxCell>
        <mxCell id="_H4QKjVuvs0xHmj5kHi2-59" style="edgeStyle=orthogonalEdgeStyle;rounded=0;orthogonalLoop=1;jettySize=auto;html=1;entryX=0.5;entryY=1;entryDx=0;entryDy=0;entryPerimeter=0;" edge="1" parent="1" source="_H4QKjVuvs0xHmj5kHi2-34" target="_H4QKjVuvs0xHmj5kHi2-7">
          <mxGeometry relative="1" as="geometry" />
        </mxCell>
        <mxCell id="_H4QKjVuvs0xHmj5kHi2-60" style="edgeStyle=orthogonalEdgeStyle;rounded=0;orthogonalLoop=1;jettySize=auto;html=1;entryX=0.5;entryY=0;entryDx=0;entryDy=0;entryPerimeter=0;" edge="1" parent="1" source="_H4QKjVuvs0xHmj5kHi2-34" target="_H4QKjVuvs0xHmj5kHi2-31">
          <mxGeometry relative="1" as="geometry" />
        </mxCell>
      </root>
    </mxGraphModel>
  </diagram>
  <diagram id="_1JsswZkLOwWFM5csUE3" name="AME">
    <mxGraphModel dx="1434" dy="844" grid="1" gridSize="10" guides="1" tooltips="1" connect="1" arrows="1" fold="1" page="1" pageScale="1" pageWidth="827" pageHeight="1169" math="0" shadow="0">
      <root>
        <mxCell id="0" />
        <mxCell id="1" parent="0" />
        <mxCell id="nJA-EaK_9EMn47iD3QZz-8" style="edgeStyle=orthogonalEdgeStyle;rounded=0;orthogonalLoop=1;jettySize=auto;html=1;" edge="1" parent="1" source="nJA-EaK_9EMn47iD3QZz-1" target="nJA-EaK_9EMn47iD3QZz-5">
          <mxGeometry relative="1" as="geometry" />
        </mxCell>
        <mxCell id="nJA-EaK_9EMn47iD3QZz-15" style="edgeStyle=orthogonalEdgeStyle;rounded=0;orthogonalLoop=1;jettySize=auto;html=1;" edge="1" parent="1" source="nJA-EaK_9EMn47iD3QZz-1" target="nJA-EaK_9EMn47iD3QZz-14">
          <mxGeometry relative="1" as="geometry">
            <Array as="points">
              <mxPoint x="430" y="366" />
              <mxPoint x="469" y="366" />
            </Array>
          </mxGeometry>
        </mxCell>
        <mxCell id="nJA-EaK_9EMn47iD3QZz-1" value="ENVELOPE" style="sketch=0;points=[[0,0,0],[0.25,0,0],[0.5,0,0],[0.75,0,0],[1,0,0],[0,1,0],[0.25,1,0],[0.5,1,0],[0.75,1,0],[1,1,0],[0,0.25,0],[0,0.5,0],[0,0.75,0],[1,0.25,0],[1,0.5,0],[1,0.75,0]];outlineConnect=0;fontColor=#232F3E;fillColor=#ED7100;strokeColor=#ffffff;dashed=0;verticalLabelPosition=bottom;verticalAlign=top;align=center;html=1;fontSize=12;fontStyle=0;aspect=fixed;shape=mxgraph.aws4.resourceIcon;resIcon=mxgraph.aws4.ec2;" vertex="1" parent="1">
          <mxGeometry x="375" y="233.75" width="78" height="78" as="geometry" />
        </mxCell>
        <mxCell id="nJA-EaK_9EMn47iD3QZz-18" style="edgeStyle=orthogonalEdgeStyle;rounded=0;orthogonalLoop=1;jettySize=auto;html=1;" edge="1" parent="1" source="nJA-EaK_9EMn47iD3QZz-2" target="nJA-EaK_9EMn47iD3QZz-17">
          <mxGeometry relative="1" as="geometry" />
        </mxCell>
        <mxCell id="nJA-EaK_9EMn47iD3QZz-21" style="edgeStyle=orthogonalEdgeStyle;rounded=0;orthogonalLoop=1;jettySize=auto;html=1;" edge="1" parent="1" source="nJA-EaK_9EMn47iD3QZz-2" target="nJA-EaK_9EMn47iD3QZz-19">
          <mxGeometry relative="1" as="geometry" />
        </mxCell>
        <mxCell id="nJA-EaK_9EMn47iD3QZz-2" value="" style="sketch=0;points=[[0,0,0],[0.25,0,0],[0.5,0,0],[0.75,0,0],[1,0,0],[0,1,0],[0.25,1,0],[0.5,1,0],[0.75,1,0],[1,1,0],[0,0.25,0],[0,0.5,0],[0,0.75,0],[1,0.25,0],[1,0.5,0],[1,0.75,0]];outlineConnect=0;fontColor=#232F3E;fillColor=#E7157B;strokeColor=#ffffff;dashed=0;verticalLabelPosition=bottom;verticalAlign=top;align=center;html=1;fontSize=12;fontStyle=0;aspect=fixed;shape=mxgraph.aws4.resourceIcon;resIcon=mxgraph.aws4.step_functions;" vertex="1" parent="1">
          <mxGeometry x="301" y="420" width="78" height="78" as="geometry" />
        </mxCell>
        <mxCell id="nJA-EaK_9EMn47iD3QZz-3" value="PARAMETRIZADOR" style="sketch=0;points=[[0,0,0],[0.25,0,0],[0.5,0,0],[0.75,0,0],[1,0,0],[0,1,0],[0.25,1,0],[0.5,1,0],[0.75,1,0],[1,1,0],[0,0.25,0],[0,0.5,0],[0,0.75,0],[1,0.25,0],[1,0.5,0],[1,0.75,0]];outlineConnect=0;fontColor=#232F3E;fillColor=#ED7100;strokeColor=#ffffff;dashed=0;verticalLabelPosition=bottom;verticalAlign=top;align=center;html=1;fontSize=12;fontStyle=0;aspect=fixed;shape=mxgraph.aws4.resourceIcon;resIcon=mxgraph.aws4.ec2;" vertex="1" parent="1">
          <mxGeometry x="690" y="170" width="78" height="78" as="geometry" />
        </mxCell>
        <mxCell id="nJA-EaK_9EMn47iD3QZz-4" value="DOMINIOS" style="sketch=0;points=[[0,0,0],[0.25,0,0],[0.5,0,0],[0.75,0,0],[1,0,0],[0,1,0],[0.25,1,0],[0.5,1,0],[0.75,1,0],[1,1,0],[0,0.25,0],[0,0.5,0],[0,0.75,0],[1,0.25,0],[1,0.5,0],[1,0.75,0]];outlineConnect=0;fontColor=#232F3E;fillColor=#ED7100;strokeColor=#ffffff;dashed=0;verticalLabelPosition=bottom;verticalAlign=top;align=center;html=1;fontSize=12;fontStyle=0;aspect=fixed;shape=mxgraph.aws4.resourceIcon;resIcon=mxgraph.aws4.ec2;" vertex="1" parent="1">
          <mxGeometry x="690" y="290" width="78" height="78" as="geometry" />
        </mxCell>
        <mxCell id="nJA-EaK_9EMn47iD3QZz-6" style="edgeStyle=orthogonalEdgeStyle;rounded=0;orthogonalLoop=1;jettySize=auto;html=1;" edge="1" parent="1" source="nJA-EaK_9EMn47iD3QZz-5" target="nJA-EaK_9EMn47iD3QZz-3">
          <mxGeometry relative="1" as="geometry">
            <Array as="points">
              <mxPoint x="660" y="250" />
              <mxPoint x="660" y="209" />
            </Array>
          </mxGeometry>
        </mxCell>
        <mxCell id="nJA-EaK_9EMn47iD3QZz-5" value="" style="outlineConnect=0;dashed=0;verticalLabelPosition=bottom;verticalAlign=top;align=center;html=1;shape=mxgraph.aws3.route_53;fillColor=#F58536;gradientColor=none;" vertex="1" parent="1">
          <mxGeometry x="560" y="230" width="70.5" height="85.5" as="geometry" />
        </mxCell>
        <mxCell id="nJA-EaK_9EMn47iD3QZz-7" style="edgeStyle=orthogonalEdgeStyle;rounded=0;orthogonalLoop=1;jettySize=auto;html=1;entryX=0;entryY=0.5;entryDx=0;entryDy=0;entryPerimeter=0;" edge="1" parent="1" source="nJA-EaK_9EMn47iD3QZz-5" target="nJA-EaK_9EMn47iD3QZz-4">
          <mxGeometry relative="1" as="geometry">
            <Array as="points">
              <mxPoint x="660" y="290" />
              <mxPoint x="660" y="329" />
            </Array>
          </mxGeometry>
        </mxCell>
        <mxCell id="nJA-EaK_9EMn47iD3QZz-10" style="edgeStyle=orthogonalEdgeStyle;rounded=0;orthogonalLoop=1;jettySize=auto;html=1;" edge="1" parent="1" source="nJA-EaK_9EMn47iD3QZz-9" target="nJA-EaK_9EMn47iD3QZz-1">
          <mxGeometry relative="1" as="geometry" />
        </mxCell>
        <mxCell id="nJA-EaK_9EMn47iD3QZz-9" value="" style="outlineConnect=0;dashed=0;verticalLabelPosition=bottom;verticalAlign=top;align=center;html=1;shape=mxgraph.aws3.internet_gateway;fillColor=#F58534;gradientColor=none;" vertex="1" parent="1">
          <mxGeometry x="379" y="100" width="69" height="72" as="geometry" />
        </mxCell>
        <mxCell id="nJA-EaK_9EMn47iD3QZz-11" value="BFF PORTAL" style="sketch=0;points=[[0,0,0],[0.25,0,0],[0.5,0,0],[0.75,0,0],[1,0,0],[0,1,0],[0.25,1,0],[0.5,1,0],[0.75,1,0],[1,1,0],[0,0.25,0],[0,0.5,0],[0,0.75,0],[1,0.25,0],[1,0.5,0],[1,0.75,0]];outlineConnect=0;fontColor=#232F3E;fillColor=#ED7100;strokeColor=#ffffff;dashed=0;verticalLabelPosition=bottom;verticalAlign=top;align=center;html=1;fontSize=12;fontStyle=0;aspect=fixed;shape=mxgraph.aws4.resourceIcon;resIcon=mxgraph.aws4.ec2;" vertex="1" parent="1">
          <mxGeometry x="192" y="233.75" width="78" height="78" as="geometry" />
        </mxCell>
        <mxCell id="nJA-EaK_9EMn47iD3QZz-12" style="edgeStyle=orthogonalEdgeStyle;rounded=0;orthogonalLoop=1;jettySize=auto;html=1;entryX=0;entryY=0.5;entryDx=0;entryDy=0;entryPerimeter=0;" edge="1" parent="1" source="nJA-EaK_9EMn47iD3QZz-11" target="nJA-EaK_9EMn47iD3QZz-1">
          <mxGeometry relative="1" as="geometry" />
        </mxCell>
        <mxCell id="nJA-EaK_9EMn47iD3QZz-14" value="ENVELOPE" style="sketch=0;points=[[0,0,0],[0.25,0,0],[0.5,0,0],[0.75,0,0],[1,0,0],[0,1,0],[0.25,1,0],[0.5,1,0],[0.75,1,0],[1,1,0],[0,0.25,0],[0,0.5,0],[0,0.75,0],[1,0.25,0],[1,0.5,0],[1,0.75,0]];outlineConnect=0;fontColor=#232F3E;fillColor=#C925D1;strokeColor=#ffffff;dashed=0;verticalLabelPosition=bottom;verticalAlign=top;align=center;html=1;fontSize=12;fontStyle=0;aspect=fixed;shape=mxgraph.aws4.resourceIcon;resIcon=mxgraph.aws4.rds;" vertex="1" parent="1">
          <mxGeometry x="430" y="420" width="78" height="78" as="geometry" />
        </mxCell>
        <mxCell id="nJA-EaK_9EMn47iD3QZz-16" style="edgeStyle=orthogonalEdgeStyle;rounded=0;orthogonalLoop=1;jettySize=auto;html=1;entryX=0.5;entryY=0;entryDx=0;entryDy=0;entryPerimeter=0;" edge="1" parent="1" source="nJA-EaK_9EMn47iD3QZz-1" target="nJA-EaK_9EMn47iD3QZz-2">
          <mxGeometry relative="1" as="geometry" />
        </mxCell>
        <mxCell id="nJA-EaK_9EMn47iD3QZz-17" value="RETORNO" style="sketch=0;points=[[0,0,0],[0.25,0,0],[0.5,0,0],[0.75,0,0],[1,0,0],[0,1,0],[0.25,1,0],[0.5,1,0],[0.75,1,0],[1,1,0],[0,0.25,0],[0,0.5,0],[0,0.75,0],[1,0.25,0],[1,0.5,0],[1,0.75,0]];outlineConnect=0;fontColor=#232F3E;fillColor=#E7157B;strokeColor=#ffffff;dashed=0;verticalLabelPosition=bottom;verticalAlign=top;align=center;html=1;fontSize=12;fontStyle=0;aspect=fixed;shape=mxgraph.aws4.resourceIcon;resIcon=mxgraph.aws4.sqs;" vertex="1" parent="1">
          <mxGeometry x="301" y="570" width="78" height="78" as="geometry" />
        </mxCell>
        <mxCell id="nJA-EaK_9EMn47iD3QZz-23" style="edgeStyle=orthogonalEdgeStyle;rounded=0;orthogonalLoop=1;jettySize=auto;html=1;" edge="1" parent="1" source="nJA-EaK_9EMn47iD3QZz-19" target="nJA-EaK_9EMn47iD3QZz-22">
          <mxGeometry relative="1" as="geometry" />
        </mxCell>
        <mxCell id="nJA-EaK_9EMn47iD3QZz-19" value="PODERES" style="sketch=0;points=[[0,0,0],[0.25,0,0],[0.5,0,0],[0.75,0,0],[1,0,0],[0,1,0],[0.25,1,0],[0.5,1,0],[0.75,1,0],[1,1,0],[0,0.25,0],[0,0.5,0],[0,0.75,0],[1,0.25,0],[1,0.5,0],[1,0.75,0]];outlineConnect=0;fontColor=#232F3E;fillColor=#ED7100;strokeColor=#ffffff;dashed=0;verticalLabelPosition=bottom;verticalAlign=top;align=center;html=1;fontSize=12;fontStyle=0;aspect=fixed;shape=mxgraph.aws4.resourceIcon;resIcon=mxgraph.aws4.ec2;" vertex="1" parent="1">
          <mxGeometry x="140" y="368" width="78" height="78" as="geometry" />
        </mxCell>
        <mxCell id="nJA-EaK_9EMn47iD3QZz-22" value="" style="sketch=0;outlineConnect=0;fontColor=#232F3E;gradientColor=none;fillColor=#8C4FFF;strokeColor=none;dashed=0;verticalLabelPosition=bottom;verticalAlign=top;align=center;html=1;fontSize=12;fontStyle=0;aspect=fixed;pointerEvents=1;shape=mxgraph.aws4.internet_gateway;" vertex="1" parent="1">
          <mxGeometry x="20" y="450" width="78" height="78" as="geometry" />
        </mxCell>
      </root>
    </mxGraphModel>
  </diagram>
  <diagram id="QRmNtHj3BapKSgxombZr" name="PORTAL">
    <mxGraphModel dx="1434" dy="844" grid="1" gridSize="10" guides="1" tooltips="1" connect="1" arrows="1" fold="1" page="1" pageScale="1" pageWidth="827" pageHeight="1169" math="0" shadow="0">
      <root>
        <mxCell id="0" />
        <mxCell id="1" parent="0" />
        <mxCell id="rNPf9ayGlipmHjTyVs4i-10" style="edgeStyle=orthogonalEdgeStyle;rounded=0;orthogonalLoop=1;jettySize=auto;html=1;" edge="1" parent="1" source="rNPf9ayGlipmHjTyVs4i-1" target="rNPf9ayGlipmHjTyVs4i-2">
          <mxGeometry relative="1" as="geometry" />
        </mxCell>
        <mxCell id="rNPf9ayGlipmHjTyVs4i-1" value="PORTAL" style="sketch=0;points=[[0,0,0],[0.25,0,0],[0.5,0,0],[0.75,0,0],[1,0,0],[0,1,0],[0.25,1,0],[0.5,1,0],[0.75,1,0],[1,1,0],[0,0.25,0],[0,0.5,0],[0,0.75,0],[1,0.25,0],[1,0.5,0],[1,0.75,0]];outlineConnect=0;fontColor=#232F3E;fillColor=#8C4FFF;strokeColor=#ffffff;dashed=0;verticalLabelPosition=bottom;verticalAlign=top;align=center;html=1;fontSize=12;fontStyle=0;aspect=fixed;shape=mxgraph.aws4.resourceIcon;resIcon=mxgraph.aws4.cloudfront;" vertex="1" parent="1">
          <mxGeometry x="375" y="120" width="78" height="78" as="geometry" />
        </mxCell>
        <mxCell id="rNPf9ayGlipmHjTyVs4i-9" style="edgeStyle=orthogonalEdgeStyle;rounded=0;orthogonalLoop=1;jettySize=auto;html=1;" edge="1" parent="1" source="rNPf9ayGlipmHjTyVs4i-2" target="rNPf9ayGlipmHjTyVs4i-8">
          <mxGeometry relative="1" as="geometry" />
        </mxCell>
        <mxCell id="rNPf9ayGlipmHjTyVs4i-2" value="BFF PORTAL" style="sketch=0;points=[[0,0,0],[0.25,0,0],[0.5,0,0],[0.75,0,0],[1,0,0],[0,1,0],[0.25,1,0],[0.5,1,0],[0.75,1,0],[1,1,0],[0,0.25,0],[0,0.5,0],[0,0.75,0],[1,0.25,0],[1,0.5,0],[1,0.75,0]];outlineConnect=0;fontColor=#232F3E;fillColor=#ED7100;strokeColor=#ffffff;dashed=0;verticalLabelPosition=bottom;verticalAlign=top;align=center;html=1;fontSize=12;fontStyle=0;aspect=fixed;shape=mxgraph.aws4.resourceIcon;resIcon=mxgraph.aws4.ec2;" vertex="1" parent="1">
          <mxGeometry x="375" y="290" width="78" height="78" as="geometry" />
        </mxCell>
        <mxCell id="rNPf9ayGlipmHjTyVs4i-3" value="AME" style="sketch=0;points=[[0,0,0],[0.25,0,0],[0.5,0,0],[0.75,0,0],[1,0,0],[0,1,0],[0.25,1,0],[0.5,1,0],[0.75,1,0],[1,1,0],[0,0.25,0],[0,0.5,0],[0,0.75,0],[1,0.25,0],[1,0.5,0],[1,0.75,0]];outlineConnect=0;fontColor=#232F3E;fillColor=#ED7100;strokeColor=#ffffff;dashed=0;verticalLabelPosition=bottom;verticalAlign=top;align=center;html=1;fontSize=12;fontStyle=0;aspect=fixed;shape=mxgraph.aws4.resourceIcon;resIcon=mxgraph.aws4.ec2;" vertex="1" parent="1">
          <mxGeometry x="375" y="460" width="78" height="78" as="geometry" />
        </mxCell>
        <mxCell id="rNPf9ayGlipmHjTyVs4i-4" value="" style="sketch=0;points=[[0,0,0],[0.25,0,0],[0.5,0,0],[0.75,0,0],[1,0,0],[0,1,0],[0.25,1,0],[0.5,1,0],[0.75,1,0],[1,1,0],[0,0.25,0],[0,0.5,0],[0,0.75,0],[1,0.25,0],[1,0.5,0],[1,0.75,0]];outlineConnect=0;fontColor=#232F3E;fillColor=#C925D1;strokeColor=#ffffff;dashed=0;verticalLabelPosition=bottom;verticalAlign=top;align=center;html=1;fontSize=12;fontStyle=0;aspect=fixed;shape=mxgraph.aws4.resourceIcon;resIcon=mxgraph.aws4.rds;" vertex="1" parent="1">
          <mxGeometry x="570" y="460" width="78" height="78" as="geometry" />
        </mxCell>
        <mxCell id="rNPf9ayGlipmHjTyVs4i-5" value="PODERES" style="sketch=0;points=[[0,0,0],[0.25,0,0],[0.5,0,0],[0.75,0,0],[1,0,0],[0,1,0],[0.25,1,0],[0.5,1,0],[0.75,1,0],[1,1,0],[0,0.25,0],[0,0.5,0],[0,0.75,0],[1,0.25,0],[1,0.5,0],[1,0.75,0]];outlineConnect=0;fontColor=#232F3E;fillColor=#ED7100;strokeColor=#ffffff;dashed=0;verticalLabelPosition=bottom;verticalAlign=top;align=center;html=1;fontSize=12;fontStyle=0;aspect=fixed;shape=mxgraph.aws4.resourceIcon;resIcon=mxgraph.aws4.ec2;" vertex="1" parent="1">
          <mxGeometry x="180" y="290" width="78" height="78" as="geometry" />
        </mxCell>
        <mxCell id="rNPf9ayGlipmHjTyVs4i-6" style="edgeStyle=orthogonalEdgeStyle;rounded=0;orthogonalLoop=1;jettySize=auto;html=1;entryX=1;entryY=0.5;entryDx=0;entryDy=0;entryPerimeter=0;" edge="1" parent="1" source="rNPf9ayGlipmHjTyVs4i-2" target="rNPf9ayGlipmHjTyVs4i-5">
          <mxGeometry relative="1" as="geometry" />
        </mxCell>
        <mxCell id="rNPf9ayGlipmHjTyVs4i-7" style="edgeStyle=orthogonalEdgeStyle;rounded=0;orthogonalLoop=1;jettySize=auto;html=1;entryX=0.5;entryY=0;entryDx=0;entryDy=0;entryPerimeter=0;" edge="1" parent="1" source="rNPf9ayGlipmHjTyVs4i-2" target="rNPf9ayGlipmHjTyVs4i-3">
          <mxGeometry relative="1" as="geometry" />
        </mxCell>
        <mxCell id="rNPf9ayGlipmHjTyVs4i-8" value="" style="sketch=0;outlineConnect=0;fontColor=#232F3E;gradientColor=none;fillColor=#8C4FFF;strokeColor=none;dashed=0;verticalLabelPosition=bottom;verticalAlign=top;align=center;html=1;fontSize=12;fontStyle=0;aspect=fixed;pointerEvents=1;shape=mxgraph.aws4.internet_gateway;" vertex="1" parent="1">
          <mxGeometry x="550" y="290" width="78" height="78" as="geometry" />
        </mxCell>
        <mxCell id="rNPf9ayGlipmHjTyVs4i-11" style="edgeStyle=orthogonalEdgeStyle;rounded=0;orthogonalLoop=1;jettySize=auto;html=1;entryX=0;entryY=0.5;entryDx=0;entryDy=0;entryPerimeter=0;" edge="1" parent="1" source="rNPf9ayGlipmHjTyVs4i-3" target="rNPf9ayGlipmHjTyVs4i-4">
          <mxGeometry relative="1" as="geometry" />
        </mxCell>
        <mxCell id="32K46GdzM7L_LVKXJw08-1" value="ENVELOPE" style="sketch=0;points=[[0,0,0],[0.25,0,0],[0.5,0,0],[0.75,0,0],[1,0,0],[0,1,0],[0.25,1,0],[0.5,1,0],[0.75,1,0],[1,1,0],[0,0.25,0],[0,0.5,0],[0,0.75,0],[1,0.25,0],[1,0.5,0],[1,0.75,0]];outlineConnect=0;fontColor=#232F3E;fillColor=#C925D1;strokeColor=#ffffff;dashed=0;verticalLabelPosition=bottom;verticalAlign=top;align=center;html=1;fontSize=12;fontStyle=0;aspect=fixed;shape=mxgraph.aws4.resourceIcon;resIcon=mxgraph.aws4.dynamodb;" vertex="1" parent="1">
          <mxGeometry x="31" y="750" width="78" height="78" as="geometry" />
        </mxCell>
        <mxCell id="32K46GdzM7L_LVKXJw08-2" value="METADADO" style="sketch=0;points=[[0,0,0],[0.25,0,0],[0.5,0,0],[0.75,0,0],[1,0,0],[0,1,0],[0.25,1,0],[0.5,1,0],[0.75,1,0],[1,1,0],[0,0.25,0],[0,0.5,0],[0,0.75,0],[1,0.25,0],[1,0.5,0],[1,0.75,0]];outlineConnect=0;fontColor=#232F3E;fillColor=#C925D1;strokeColor=#ffffff;dashed=0;verticalLabelPosition=bottom;verticalAlign=top;align=center;html=1;fontSize=12;fontStyle=0;aspect=fixed;shape=mxgraph.aws4.resourceIcon;resIcon=mxgraph.aws4.dynamodb;" vertex="1" parent="1">
          <mxGeometry x="161" y="750" width="78" height="78" as="geometry" />
        </mxCell>
        <mxCell id="32K46GdzM7L_LVKXJw08-3" value="REGRAS" style="sketch=0;points=[[0,0,0],[0.25,0,0],[0.5,0,0],[0.75,0,0],[1,0,0],[0,1,0],[0.25,1,0],[0.5,1,0],[0.75,1,0],[1,1,0],[0,0.25,0],[0,0.5,0],[0,0.75,0],[1,0.25,0],[1,0.5,0],[1,0.75,0]];outlineConnect=0;fontColor=#232F3E;fillColor=#C925D1;strokeColor=#ffffff;dashed=0;verticalLabelPosition=bottom;verticalAlign=top;align=center;html=1;fontSize=12;fontStyle=0;aspect=fixed;shape=mxgraph.aws4.resourceIcon;resIcon=mxgraph.aws4.dynamodb;" vertex="1" parent="1">
          <mxGeometry x="280" y="750" width="78" height="78" as="geometry" />
        </mxCell>
        <mxCell id="32K46GdzM7L_LVKXJw08-4" value="PARTICIPANTE" style="sketch=0;points=[[0,0,0],[0.25,0,0],[0.5,0,0],[0.75,0,0],[1,0,0],[0,1,0],[0.25,1,0],[0.5,1,0],[0.75,1,0],[1,1,0],[0,0.25,0],[0,0.5,0],[0,0.75,0],[1,0.25,0],[1,0.5,0],[1,0.75,0]];outlineConnect=0;fontColor=#232F3E;fillColor=#C925D1;strokeColor=#ffffff;dashed=0;verticalLabelPosition=bottom;verticalAlign=top;align=center;html=1;fontSize=12;fontStyle=0;aspect=fixed;shape=mxgraph.aws4.resourceIcon;resIcon=mxgraph.aws4.dynamodb;" vertex="1" parent="1">
          <mxGeometry x="411" y="750" width="78" height="78" as="geometry" />
        </mxCell>
        <mxCell id="32K46GdzM7L_LVKXJw08-5" value="METADADOS PARTICIPANTE" style="sketch=0;points=[[0,0,0],[0.25,0,0],[0.5,0,0],[0.75,0,0],[1,0,0],[0,1,0],[0.25,1,0],[0.5,1,0],[0.75,1,0],[1,1,0],[0,0.25,0],[0,0.5,0],[0,0.75,0],[1,0.25,0],[1,0.5,0],[1,0.75,0]];outlineConnect=0;fontColor=#232F3E;fillColor=#C925D1;strokeColor=#ffffff;dashed=0;verticalLabelPosition=bottom;verticalAlign=top;align=center;html=1;fontSize=12;fontStyle=0;aspect=fixed;shape=mxgraph.aws4.resourceIcon;resIcon=mxgraph.aws4.dynamodb;" vertex="1" parent="1">
          <mxGeometry x="550" y="750" width="78" height="78" as="geometry" />
        </mxCell>
        <mxCell id="32K46GdzM7L_LVKXJw08-6" value="NOTIFICACAO PARTICIPANTE" style="sketch=0;points=[[0,0,0],[0.25,0,0],[0.5,0,0],[0.75,0,0],[1,0,0],[0,1,0],[0.25,1,0],[0.5,1,0],[0.75,1,0],[1,1,0],[0,0.25,0],[0,0.5,0],[0,0.75,0],[1,0.25,0],[1,0.5,0],[1,0.75,0]];outlineConnect=0;fontColor=#232F3E;fillColor=#C925D1;strokeColor=#ffffff;dashed=0;verticalLabelPosition=bottom;verticalAlign=top;align=center;html=1;fontSize=12;fontStyle=0;aspect=fixed;shape=mxgraph.aws4.resourceIcon;resIcon=mxgraph.aws4.dynamodb;" vertex="1" parent="1">
          <mxGeometry x="280" y="940" width="78" height="78" as="geometry" />
        </mxCell>
        <mxCell id="32K46GdzM7L_LVKXJw08-7" value="ERRO" style="sketch=0;points=[[0,0,0],[0.25,0,0],[0.5,0,0],[0.75,0,0],[1,0,0],[0,1,0],[0.25,1,0],[0.5,1,0],[0.75,1,0],[1,1,0],[0,0.25,0],[0,0.5,0],[0,0.75,0],[1,0.25,0],[1,0.5,0],[1,0.75,0]];outlineConnect=0;fontColor=#232F3E;fillColor=#C925D1;strokeColor=#ffffff;dashed=0;verticalLabelPosition=bottom;verticalAlign=top;align=center;html=1;fontSize=12;fontStyle=0;aspect=fixed;shape=mxgraph.aws4.resourceIcon;resIcon=mxgraph.aws4.dynamodb;" vertex="1" parent="1">
          <mxGeometry x="60" y="930" width="78" height="78" as="geometry" />
        </mxCell>
        <mxCell id="vRV3HZzGzoW3Bzy25RZo-1" value="ID ORDEM&lt;div&gt;ID AREA&lt;/div&gt;&lt;div&gt;ID CONSUMIDOR&lt;/div&gt;" style="text;html=1;align=center;verticalAlign=middle;resizable=0;points=[];autosize=1;strokeColor=none;fillColor=none;" vertex="1" parent="1">
          <mxGeometry x="10" y="845" width="120" height="60" as="geometry" />
        </mxCell>
        <mxCell id="vRV3HZzGzoW3Bzy25RZo-2" value="ID ORDEM" style="text;html=1;align=center;verticalAlign=middle;resizable=0;points=[];autosize=1;strokeColor=none;fillColor=none;" vertex="1" parent="1">
          <mxGeometry x="160" y="860" width="80" height="30" as="geometry" />
        </mxCell>
        <mxCell id="vRV3HZzGzoW3Bzy25RZo-3" value="ID ORDEM&lt;div&gt;ID REGRAS&lt;/div&gt;&lt;div&gt;ID PARTICIPANTE&lt;/div&gt;" style="text;html=1;align=center;verticalAlign=middle;resizable=0;points=[];autosize=1;strokeColor=none;fillColor=none;" vertex="1" parent="1">
          <mxGeometry x="259" y="845" width="120" height="60" as="geometry" />
        </mxCell>
        <mxCell id="vRV3HZzGzoW3Bzy25RZo-4" value="ID PARTICIPANTE&lt;div&gt;ID ORDEM&lt;/div&gt;" style="text;html=1;align=center;verticalAlign=middle;resizable=0;points=[];autosize=1;strokeColor=none;fillColor=none;" vertex="1" parent="1">
          <mxGeometry x="390" y="865" width="120" height="40" as="geometry" />
        </mxCell>
        <mxCell id="vRV3HZzGzoW3Bzy25RZo-5" value="ID PARTICIPANTE" style="text;html=1;align=center;verticalAlign=middle;resizable=0;points=[];autosize=1;strokeColor=none;fillColor=none;" vertex="1" parent="1">
          <mxGeometry x="529" y="870" width="120" height="30" as="geometry" />
        </mxCell>
        <mxCell id="vRV3HZzGzoW3Bzy25RZo-6" value="ID ORDEM&lt;div&gt;ID PARTICIPANTE&lt;/div&gt;&lt;div&gt;ID REGRA&lt;/div&gt;" style="text;html=1;align=center;verticalAlign=middle;resizable=0;points=[];autosize=1;strokeColor=none;fillColor=none;" vertex="1" parent="1">
          <mxGeometry x="39" y="1033" width="120" height="60" as="geometry" />
        </mxCell>
        <mxCell id="vRV3HZzGzoW3Bzy25RZo-7" value="ID PARTICIPANTE" style="text;html=1;align=center;verticalAlign=middle;resizable=0;points=[];autosize=1;strokeColor=none;fillColor=none;" vertex="1" parent="1">
          <mxGeometry x="259" y="1058" width="120" height="30" as="geometry" />
        </mxCell>
      </root>
    </mxGraphModel>
  </diagram>
</mxfile>
